<?xml version="1.0" standalone="no"?>
<!DOCTYPE svg PUBLIC "-//W3C//DTD SVG 1.1//EN" "http://www.w3.org/Graphics/SVG/1.1/DTD/svg11.dtd">
<svg xmlns="http://www.w3.org/2000/svg">
<defs >
<font id="Lora" horiz-adv-x="1198" ><font-face
    font-family="Lora"
    units-per-em="2048"
    panose-1="2 0 8 3 0 0 0 2 0 4"
    ascent="2061"
    descent="-563"
    alphabetic="0" />
<glyph unicode=" " glyph-name="space" horiz-adv-x="539" />
<glyph unicode="!" glyph-name="exclam" horiz-adv-x="528" d="M412 126Q412 93 400 64T366 14T318 -20T262 -33Q232 -33 206 -21T159 13T127 64T115 126Q115 159 127 188T159 240T207 274T264 287Q296 287 323 275T370 240T401 189T412 126ZM333 437H194L117
1281Q114 1314 122 1347T148 1406T196 1450T264 1467Q305 1467 334 1450T381 1407T406 1347T410 1281L333 437Z" />
<glyph unicode="&quot;" glyph-name="quotedbl" horiz-adv-x="667" d="M105 1006L88 1467H286L269 1006H105ZM398 1006L381 1467H579L562 1006H398Z" />
<glyph unicode="#" glyph-name="numbersign" horiz-adv-x="1784" d="M332 -33L415 315H75L118 497H453L555 901H210L253 1083H594L685 1467H890L802 1083H1157L1248 1467H1453L1365 1083H1708V1081L1667 901H1327L1230 497H1572L1530 315H1193L1113 -33H895L978
315H629L549 -33H332ZM666 497H1016L1118 901H764L666 497Z" />
<glyph unicode="$" glyph-name="dollar" horiz-adv-x="1205" d="M618 115Q673 115 715 130T786 173T830 238T845 320Q845 372 820 408T754 473T659 523T546 570Q457 606 377 652T236 758T139 897T103 1076Q103 1136 121 1202T185 1325T310 1421T513 1466V1714H705L703
1446Q794 1422 868 1369H870L863 1453H1021V974H887Q859 1146 782 1232T562 1319Q518 1319 483 1306T422 1270T383 1214T369 1143Q369 1095 384 1059T436 992T532 929T680 857Q731 834 783 809T883 752T975 685T1049 603T1099 502T1118 380Q1118 300 1092 232T1017
110T894 22T727 -26L726 -315H539L537 -26Q471 -16 405 7T278 68H276L283 -19H125V460H259Q287 286 380 201T618 115Z" />
<glyph unicode="%" glyph-name="percent" horiz-adv-x="1852" d="M335 1089Q335 1051 341 1006T362 921T404 856T473 829Q510 829 535 849T576 902T597 972T604 1047Q604 1087 598 1133T576 1218T534 1283T469 1309Q430 1309 404 1286T363 1229T341 1157T335 1089ZM1578
1332L395 -34L262 90L1429 1467L1578 1332ZM84 1059Q84 1130 110 1203T185 1334T307 1430T472 1467Q565 1467 636 1433T756 1343T830 1217T855 1077Q855 996 826 922T744 790T623 699T472 665Q377 665 305 698T184 786T109 912T84 1059ZM1250 391Q1250 353 1256
308T1277 223T1319 158T1388 131Q1425 131 1450 151T1491 204T1512 274T1519 349Q1519 389 1513 435T1491 520T1449 585T1384 611Q1345 611 1319 588T1278 531T1256 459T1250 391ZM999 361Q999 432 1025 505T1100 636T1223 732T1387 769Q1480 769 1551 735T1671
645T1745 519T1770 379Q1770 298 1741 224T1659 92T1538 1T1387 -33Q1292 -33 1220 0T1099 88T1024 214T999 361Z" />
<glyph unicode="&amp;" glyph-name="ampersand" horiz-adv-x="1372" d="M1139 536Q1139 417 1099 315L1131 288Q1170 255 1206 227T1275 178T1334 147T1382 135V0H1164Q1145 0 1090 30T962 117Q881 45 774 6T535 -33Q446 -33 359 -11T202 57T91 176T48 349Q48
418 72 479T138 591T239 682T367 748Q312 808 279 859T227 955T204 1043T198 1129Q199 1206 227 1268T307 1375T429 1443T589 1467Q670 1467 736 1441T848 1371T920 1268T946 1145Q946 1082 922 1024T856 915T761 822T651 746Q657 739 687 708T764 630T866 529T981
420H983Q989 444 991 470T994 522Q994 564 987 593T967 640T933 667T885 678V809H1229V655Q1209 656 1179 658T1117 663V661Q1139 613 1139 536ZM601 113Q677 113 741 138T857 209L754 302Q695 355 648 399T562 483T490 559T426 631Q397 607 378 576T347 514T330
452T325 400Q325 259 398 186T601 113ZM443 1139Q443 1108 452 1071T476 996T513 922T560 855Q599 885 627 923T675 1003T704 1083T714 1155Q714 1230 679 1276T579 1322Q521 1322 482 1276T443 1139Z" />
<glyph unicode="&apos;" glyph-name="quotesingle" horiz-adv-x="386" d="M106 1006L87 1467H299L281 1006H106Z" />
<glyph unicode="(" glyph-name="parenleft" horiz-adv-x="607" d="M327 489Q327 443 331 373T347 217T377 38T424 -148T493 -327T586 -484L512 -555Q461 -508 407 -445T302 -303T205 -134T125 57T70 266T50 489Q50 602 70 712T124 926T204 1123T301 1298T406 1444T511
1556L586 1485Q533 1415 493 1327T425 1144T377 951T347 767T332 607T327 489Z" />
<glyph unicode=")" glyph-name="parenright" horiz-adv-x="607" d="M280 512Q280 558 276 628T260 784T230 963T183 1149T114 1328T21 1485L95 1556Q146 1509 200 1446T305 1304T402 1135T482 944T537 735T557 512Q557 399 537 289T483 75T403 -122T306 -297T201
-443T96 -555L21 -484Q74 -414 114 -326T182 -143T230 50T260 234T275 394T280 512Z" />
<glyph unicode="*" glyph-name="asterisk" horiz-adv-x="1092" d="M497 1060Q467 1151 454 1214T440 1320Q440 1347 444 1373T460 1420T493 1454T547 1467Q580 1467 600 1454T633 1420T649 1373T653 1320Q653 1277 640 1214T596 1060Q655 1103 700 1131T781 1177T845
1201T900 1208Q916 1208 934 1203T968 1185T994 1153T1004 1102Q1004 1079 995 1062T970 1031T934 1007T892 991Q848 977 785 971T626 965Q704 908 752 866T825 789Q843 764 856 737T869 683Q869 667 861 650T839 619T806 595T766 585Q731 585 703 608T653 662Q627
698 601 757T547 907Q517 815 491 757T439 664Q416 633 389 609T326 585Q305 585 287 594T254 618T232 649T224 683Q224 712 236 741T277 805T352 878T466 965Q368 965 306 971T201 992Q179 999 159 1008T123 1031T98 1062T88 1103Q88 1133 97 1153T122 1186T155
1203T190 1209Q217 1209 246 1202T312 1177T394 1131T497 1060Z" />
<glyph unicode="+" glyph-name="plus" horiz-adv-x="1078" d="M82 748L435 746V1112H637V746L996 744V556L637 555V168H435V554L82 553V748Z" />
<glyph unicode="," glyph-name="comma" horiz-adv-x="512" d="M425 65Q425 -35 380 -149T237 -382L158 -325Q174 -304 194 -268T233 -188T263 -96T275 -2Q260 -7 251 -8T231 -9Q204 -9 179 -1T134 23T102 65T90 127Q90 158 101 186T132 235T180 268T243 281Q289
281 323 265T379 219T413 150T425 65Z" />
<glyph unicode="-" glyph-name="hyphen" horiz-adv-x="964" d="M105 753H859V539L105 532V753Z" />
<glyph unicode="." glyph-name="period" horiz-adv-x="478" d="M387 126Q387 93 377 64T348 14T302 -20T242 -33Q208 -33 180 -21T132 13T101 64T90 126Q90 159 102 188T134 240T182 274T239 287Q271 287 298 275T345 240T376 189T387 126Z" />
<glyph unicode="/" glyph-name="slash" horiz-adv-x="1432" d="M1381 1427L211 -555L52 -450L1195 1547L1381 1427Z" />
<glyph unicode="0" glyph-name="zero" horiz-adv-x="1302" d="M400 753Q400 682 403 607T416 460T444 326T491 215T562 140T663 112Q736 112 782 158T855 281T892 461T902 677Q902 760 899 840T885 991T858 1124T814 1229T747 1297T655 1322Q581 1322 532 1276T454
1152T413 971T400 753ZM89 711Q89 797 105 886T152 1060T231 1218T342 1347T485 1435T660 1467Q759 1467 838 1436T979 1350T1085 1222T1157 1067T1199 895T1213 721Q1213 636 1198 547T1152 375T1075 217T966 87T825 -1T651 -33Q547 -33 465 -2T320 84T214 210T142
366T102 537T89 711Z" />
<glyph unicode="1" glyph-name="one" horiz-adv-x="831" d="M85 1001L13 1124L481 1467H605V336Q605 308 605 281T603 230T601 185T597 152L751 158V0H163V135Q197 137 224 141T270 163T299 216T309 313V1134L85 1001Z" />
<glyph unicode="2" glyph-name="two" horiz-adv-x="1091" d="M477 1321Q422 1321 378 1296T312 1235Q334 1212 343 1182T352 1129Q352 1110 345 1087T321 1045T277 1012T212 998Q180 999 156 1011T116 1043T91 1090T82 1147Q82 1178 95 1214T133 1285T197 1353T284
1411T395 1452T528 1467Q610 1467 692 1447T840 1381T947 1262T988 1080Q988 1028 970 973T902 849T764 694T537 495Q480 449 439 407T370 327T327 261T307 211L708 200H724Q755 200 781 205T825 226T853 266T863 333H993L977 0H80Q80 106 108 189T181 341T283
467T400 580Q474 649 526 711T611 831T659 944T674 1055Q674 1104 665 1151T634 1236T573 1297T477 1321Z" />
<glyph unicode="3" glyph-name="three" horiz-adv-x="1146" d="M72 269Q72 300 82 328T111 377T156 411T216 424Q252 424 276 411T316 379T337 336T344 292Q344 273 337 247T312 198Q322 179 341 164T385 139T438 123T496 117Q560 117 608 137T689 194T738 280T755
388Q755 442 741 495T692 590T599 659T452 686Q445 686 431 686T401 684T370 682T346 680V827Q357 825 365 825T381 825Q533 822 612 892T692 1092Q692 1142 682 1184T648 1257T589 1305T502 1322Q474 1322 449 1315T402 1295T365 1268T340 1237Q359 1214 366 1185T373
1136Q373 1117 366 1095T342 1052T299 1019T234 1005Q202 1006 178 1018T138 1050T113 1097T104 1154Q104 1199 130 1254T211 1356T345 1435T534 1467Q629 1467 712 1448T857 1386T954 1273T990 1103Q990 1063 974 1015T921 921T826 838T682 782V780Q780 763 852
726T971 639T1041 527T1064 401Q1064 296 1024 215T910 79T737 -4T516 -33Q400 -33 316 -6T178 64T98 161T72 269Z" />
<glyph unicode="4" glyph-name="four" horiz-adv-x="1121" d="M852 370V336Q852 308 852 281T850 230T848 185T844 152L998 158V0H413V135Q447 137 474 141T520 163T549 216T559 313V370H25V563L728 1467H852V556H1052V370H852ZM215 561H559V1011L215 561Z" />
<glyph unicode="5" glyph-name="five" horiz-adv-x="1106" d="M338 188Q345 171 363 157T404 133T452 118T498 112Q559 112 602 138T672 205T711 298T724 403Q724 434 722 472T712 549T688 626T645 693T578 740T479 758Q434 758 370 742T233 683L145 750L138 1434H668Q703
1434 731 1438T780 1457T812 1498T823 1567H953L937 1234L294 1223V858Q317 868 347 877T411 892T478 903T543 907Q670 907 763 870T918 769T1010 622T1040 447Q1040 328 995 238T876 88T708 -2T513 -33Q412 -33 334 -8T201 58T119 148T90 247Q90 278 100 306T128
356T173 391T232 404Q269 404 293 391T333 359T354 316T361 272Q361 255 356 232T338 188Z" />
<glyph unicode="6" glyph-name="six" horiz-adv-x="1178" d="M596 750Q564 750 533 740T475 711T427 668T392 615Q392 567 396 511T409 399T434 291T473 199T527 135T598 111Q652 111 687 134T742 197T771 286T780 389Q780 420 778 458T770 537T752 615T720 684T669
732T596 750ZM1029 1192Q1029 1165 1021 1139T996 1092T955 1059T899 1046Q861 1046 835 1058T793 1090T771 1132T764 1176Q764 1193 770 1219T793 1265Q776 1288 744 1305T665 1323Q613 1323 573 1300T503 1238T453 1146T419 1035T400 915T391 798Q409 819 439
839T508 876T589 903T671 913Q780 913 859 878T989 780T1065 630T1090 440Q1090 343 1053 257T948 107T789 5T587 -33Q450 -33 356 15T204 154T120 373T94 660Q94 719 103 801T136 974T200 1152T303 1310T452 1423T655 1467Q752 1467 822 1442T939 1376T1007 1287T1029
1192Z" />
<glyph unicode="7" glyph-name="seven" horiz-adv-x="960" d="M315 1231H304Q271 1231 245 1224T200 1199T171 1154T160 1085H30L46 1434H918V1248Q849 1106 799 974T709 706T632 428T556 122Q549 93 537 66T506 16T464 -19T410 -33Q377 -33 355 -23T320 5T300
44T294 89Q294 111 299 139T322 216T369 341T450 537T573 825T746 1226L315 1231Z" />
<glyph unicode="8" glyph-name="eight" horiz-adv-x="1172" d="M1025 1119Q1025 1066 1003 1017T946 924T868 846T781 785V783Q938 686 1012 578T1086 352Q1086 252 1044 180T932 60T771 -10T579 -33Q531 -33 478 -25T373 0T275 44T193 111T136 203T115 323Q115
382 138 437T199 542T285 632T385 702V704Q317 747 270 794T194 890T151 986T138 1076Q138 1176 181 1249T291 1371T441 1443T602 1467Q681 1467 757 1444T893 1377T988 1268T1025 1119ZM792 309Q792 347 779 387T735 469T653 550T526 629Q482 595 452 555T402
473T373 395T364 329Q364 282 381 242T428 173T498 128T587 111Q635 111 673 126T737 169T778 232T792 309ZM423 1133Q423 1093 441 1054T489 979T561 914T648 867Q683 893 711 925T760 991T792 1058T803 1121Q803 1170 789 1208T749 1271T691 1310T618 1323Q573
1323 537 1308T476 1266T437 1206T423 1133Z" />
<glyph unicode="9" glyph-name="nine" horiz-adv-x="1179" d="M585 684Q618 684 648 694T705 723T751 766T786 819Q786 918 777 1009T744 1169T680 1281T580 1323Q533 1323 499 1300T443 1237T409 1148T398 1045Q398 1014 400 976T408 897T427 819T461 750T512
702T585 684ZM148 236Q148 263 157 290T184 339T226 374T283 388Q321 388 346 376T386 344T407 302T413 258Q413 249 412 238T406 214T397 191T384 171Q400 148 432 131T511 113Q584 113 636 152T722 258T772 410T788 588Q788 600 788 612T787 636Q769 615 739
595T672 558T594 531T512 521Q404 521 324 556T192 656T114 807T88 998Q88 1101 124 1187T225 1335T380 1432T581 1467Q718 1467 813 1415T969 1271T1056 1051T1083 774Q1083 698 1075 609T1044 430T983 257T881 109T730 6T522 -33Q421 -33 350 -10T234 50T169
136T148 236Z" />
<glyph unicode=":" glyph-name="colon" horiz-adv-x="507" d="M402 126Q402 93 392 64T363 14T317 -20T257 -33Q223 -33 195 -21T147 13T116 64T105 126Q105 159 117 188T149 240T197 274T254 287Q286 287 313 275T360 240T391 189T402 126ZM402 951Q402 918 392
889T363 839T317 805T257 792Q223 792 195 804T147 838T116 889T105 951Q105 984 117 1013T149 1065T197 1099T254 1112Q286 1112 313 1100T360 1065T391 1014T402 951Z" />
<glyph unicode=";" glyph-name="semicolon" horiz-adv-x="546" d="M438 65Q438 -35 393 -149T250 -382L171 -325Q187 -304 207 -268T246 -188T276 -96T288 -2Q273 -7 264 -8T244 -9Q217 -9 192 -1T147 23T115 65T103 127Q103 158 114 186T145 235T193 268T256
281Q302 281 336 265T392 219T426 150T438 65ZM431 951Q431 918 421 889T392 839T346 805T286 792Q252 792 224 804T176 838T145 889T134 951Q134 984 146 1013T178 1065T226 1099T283 1112Q315 1112 342 1100T389 1065T420 1014T431 951Z" />
<glyph unicode="&lt;" glyph-name="less" horiz-adv-x="1128" d="M79 733L1001 1142V926L364 646V644L1001 364V146L79 547V733Z" />
<glyph unicode="=" glyph-name="equal" horiz-adv-x="1181" d="M130 546L1052 542V353L130 349V546ZM130 926L1052 923V733L130 730V926Z" />
<glyph unicode="&gt;" glyph-name="greater" horiz-adv-x="1128" d="M1049 555L127 146V362L764 642V644L127 924V1142L1049 741V555Z" />
<glyph unicode="?" glyph-name="question" horiz-adv-x="1031" d="M655 126Q655 93 643 64T609 14T561 -20T505 -33Q475 -33 449 -21T402 13T370 64T358 126Q358 159 370 188T402 240T450 274T507 287Q539 287 566 275T613 240T644 189T655 126ZM638 1100Q638
1148 630 1189T602 1260T549 1307T463 1324Q438 1324 414 1318T370 1303T333 1282T307 1258Q328 1237 336 1207T345 1156Q345 1136 338 1112T314 1067T273 1032T212 1017Q177 1017 151 1028T108 1058T83 1105T75 1163Q75 1218 107 1272T197 1369T332 1440T502 1467Q623
1467 706 1439T841 1365T914 1261T937 1141Q937 1069 906 1008T827 895T724 798T622 714T543 641T511 573Q511 547 530 530T592 513Q606 513 621 514T655 521L687 416Q661 402 634 394T580 380T529 373T485 371Q452 371 420 378T363 403T323 447T307 513Q307 538
313 561T338 612T389 676T474 764Q510 800 540 835T591 909T625 995T638 1100Z" />
<glyph unicode="@" glyph-name="at" horiz-adv-x="1624" d="M717 297Q743 297 769 324T820 398T866 503T904 628T932 760T946 884Q920 892 887 892Q848 892 816 873T757 822T711 746T676 653T655 550T648 446Q648 374 666 336T717 297ZM1416 57Q1295 -78 1145
-140T825 -203Q704 -203 603 -176T422 -100T280 17T179 165T118 337T97 525Q97 612 119 703T184 881T292 1045T440 1179T629 1270T857 1304Q967 1304 1060 1278T1227 1205T1358 1095T1452 958T1509 803T1528 638Q1528 554 1511 485T1463 361T1393 266T1309 198T1219
158T1130 145Q1094 145 1057 154T990 187T942 255T923 369Q923 379 923 389T925 410Q897 341 865 293T799 214T730 170T662 156Q619 156 580 173T510 226T462 318T444 453Q444 553 474 649T564 822T712 946T915 993Q960 993 1025 983T1160 950Q1154 904 1147 850T1133
740T1118 628T1106 523T1097 432T1094 365Q1094 342 1097 321T1110 282T1133 255T1169 244Q1209 244 1240 263T1295 315T1334 388T1360 473T1374 560T1378 639Q1378 779 1337 886T1225 1067T1056 1178T845 1216Q757 1216 680 1190T537 1118T420 1008T332 869T277
710T258 537Q258 382 307 263T440 62T636 -61T875 -103Q937 -103 1004 -90T1136 -50T1261 17T1370 112L1416 57Z" />
<glyph unicode="A" glyph-name="A" horiz-adv-x="1368" d="M844 428L399 420L366 324Q361 310 354 289T337 245T318 199T301 158L447 164V0H8V141Q51 141 80 160T132 212T171 286T205 375L605 1470H747L1184 354Q1190 339 1198 314T1216 261T1232 204T1242 152L1360
158V0H808V135Q863 135 885 156T907 215Q907 236 901 261T885 316L844 428ZM451 573H792L699 830Q672 905 651 978T620 1109H618Q610 1074 593 1005T543 839L451 573Z" />
<glyph unicode="B" glyph-name="B" horiz-adv-x="1354" d="M102 135Q136 137 163 141T209 163T238 216T248 313V1098Q248 1126 248 1153T250 1204T252 1249T256 1282L102 1276V1434L670 1438Q789 1438 885 1417T1050 1352T1156 1242T1193 1086Q1193 1034 1176
990T1124 905T1033 831T900 776V774Q1002 758 1076 723T1200 639T1273 531T1297 407Q1297 307 1260 231T1156 104T998 26T799 0H102V135ZM536 145Q590 145 639 145T736 148Q798 151 843 171T917 227T960 309T974 414Q974 484 952 531T892 608T807 649T710 661Q613
661 544 659V326Q544 298 544 272T542 221T540 178T536 145ZM651 807Q716 808 760 830T831 889T869 976T881 1082Q881 1144 862 1185T812 1250T742 1284T664 1294Q639 1293 617 1288T579 1266T554 1215T544 1122V804L651 807Z" />
<glyph unicode="C" glyph-name="C" horiz-adv-x="1410" d="M394 738Q394 605 422 494T505 303T640 178T824 133Q888 133 953 150T1079 199T1194 279T1292 385L1390 295Q1315 191 1233 127T1070 28T913 -20T774 -33Q615 -33 486 23T264 178T122 410T72 696Q72 789
92 882T151 1061T251 1221T390 1350T569 1436T788 1467Q828 1467 872 1461T963 1441T1054 1410T1140 1366H1142L1135 1453H1293V974H1159Q1131 1145 1046 1231T815 1318Q708 1318 629 1269T497 1139T420 954T394 738Z" />
<glyph unicode="D" glyph-name="D" horiz-adv-x="1555" d="M102 1434L699 1436Q834 1436 944 1408T1142 1330T1293 1212T1399 1066T1461 902T1482 731Q1482 648 1463 562T1404 394T1300 241T1149 116T947 31T689 0H102V135Q136 137 163 142T209 164T238 216T248
313V1098Q248 1126 248 1153T250 1204T252 1249T256 1282L102 1276V1434ZM695 1299Q657 1300 629 1295T582 1272T554 1219T544 1125V336Q544 308 544 281T542 230T540 185T536 152Q551 153 576 153T630 152T686 151T732 150Q844 150 924 195T1057 316T1134 489T1159
688Q1159 845 1127 959T1034 1147T887 1259T695 1299Z" />
<glyph unicode="E" glyph-name="E" horiz-adv-x="1278" d="M544 672V336Q544 308 544 282T542 231T540 188T536 155L811 156Q856 156 901 171T981 220T1038 311T1060 451H1195L1183 0H102V135Q136 137 163 142T209 164T238 216T248 313V1098Q248 1126 248 1153T250
1204T252 1249T256 1282L102 1276V1434H1127L1139 1037H1004Q1004 1120 981 1172T921 1253T841 1292T755 1301L681 1299Q649 1298 624 1293T581 1269T554 1216T544 1121V814H785L776 991H934V493H799Q799 557 783 594T740 649T677 670T598 673L544 672Z" />
<glyph unicode="F" glyph-name="F" horiz-adv-x="1169" d="M544 622V336Q544 308 544 281T542 230T540 185T536 152L718 158V0H102V135Q136 137 163 142T209 164T238 216T248 313V1098Q248 1126 248 1153T250 1204T252 1249T256 1282L102 1276V1434H1127L1139
1037H1004Q1004 1120 981 1172T921 1253T841 1292T755 1301L681 1299Q649 1298 624 1293T581 1269T554 1216T544 1121V764H756L747 941H905V443H770Q770 507 754 544T711 599T648 620T569 623L544 622Z" />
<glyph unicode="G" glyph-name="G" horiz-adv-x="1545" d="M1373 69H1323Q1264 69 1206 53T1082 18T941 -17T771 -33Q604 -33 474 23T255 178T120 410T73 696Q73 789 92 882T151 1061T250 1221T388 1350T567 1436T785 1467Q825 1467 875 1461T978 1441T1081 1410T1173
1366H1175L1168 1453H1326V974H1192Q1178 1060 1144 1124T1060 1232T947 1296T812 1318Q705 1318 626 1269T496 1139T419 954T394 738Q394 605 421 494T503 301T636 175T821 130Q851 130 889 133T967 143T1044 160T1111 185V375Q1111 403 1111 430T1113 481T1115
526T1119 559L965 553V711H1509V576Q1474 574 1449 568T1407 544T1382 491T1373 398V69Z" />
<glyph unicode="H" glyph-name="H" horiz-adv-x="1652" d="M1404 336Q1404 308 1404 281T1402 230T1400 185T1396 152L1550 158V0H962V135Q996 137 1023 141T1069 163T1098 216T1108 313V645L544 638V336Q544 308 544 281T542 230T540 185T536 152L690 158V0H102V135Q136
137 163 141T209 163T238 216T248 313V1098Q248 1126 248 1153T250 1204T252 1249T256 1282L102 1276V1434H690V1299Q655 1297 628 1292T583 1270T554 1218T544 1121V800H1108V1098Q1108 1126 1108 1153T1110 1204T1112 1249T1116 1282L962 1276V1434H1550V1299Q1515
1297 1488 1292T1443 1270T1414 1218T1404 1121V336Z" />
<glyph unicode="I" glyph-name="I" horiz-adv-x="792" d="M544 336Q544 308 544 281T542 230T540 185T536 152L690 158V0H102V135Q136 137 163 141T209 163T238 216T248 313V1098Q248 1126 248 1153T250 1204T252 1249T256 1282L102 1276V1434H690V1299Q655 1297
628 1292T583 1270T554 1218T544 1121V336Z" />
<glyph unicode="J" glyph-name="J" horiz-adv-x="924" d="M722 521Q722 373 694 268T612 96T478 -2T295 -33Q235 -33 182 -17T88 29T25 98T2 186Q2 220 11 251T40 305T88 343T154 357Q190 357 215 345T258 314T283 269T291 219Q291 202 286 184T273 148Q277 138
285 132T303 121T321 116T335 114Q379 114 402 152T426 277V1098Q426 1126 426 1153T428 1204T430 1249T434 1282L280 1276V1434H868V1299Q833 1297 806 1292T761 1270T732 1218T722 1121V521Z" />
<glyph unicode="K" glyph-name="K" horiz-adv-x="1459" d="M544 809H693L849 1077Q867 1108 886 1140T924 1200T959 1249T990 1282V1284L860 1276V1434H1361V1299Q1326 1297 1289 1290T1211 1261T1128 1198T1044 1089L848 775V772Q890 747 921 718T976 654L1187
357Q1218 313 1251 274T1318 204T1386 156T1456 135V0H1140Q1127 1 1102 22T1048 75T990 142T940 208L738 503Q724 522 709 543T678 583T647 619T618 646L544 645V336Q544 308 544 281T542 230T540 185T536 152L690 158V0H102V135Q136 137 163 141T209 163T238
216T248 313V1098Q248 1126 248 1153T250 1204T252 1249T256 1282L102 1276V1434H690V1299Q655 1297 628 1292T583 1270T554 1218T544 1121V809Z" />
<glyph unicode="L" glyph-name="L" horiz-adv-x="1238" d="M102 0V135Q136 137 163 141T209 163T238 216T248 313V1098Q248 1126 248 1153T250 1204T252 1249T256 1282L102 1276V1434H690V1299Q655 1297 628 1292T583 1270T554 1218T544 1121V336Q544 308 544
282T542 231T540 188T536 155L811 156Q932 156 1001 239T1070 491H1206L1194 0H102Z" />
<glyph unicode="M" glyph-name="M" horiz-adv-x="1990" d="M1445 1102L1026 -20H835L560 654Q548 682 530 730T491 840T452 971T416 1116H414Q417 1001 419 900T420 706L417 336Q417 308 417 281T415 230T412 185T408 152L563 158V0H96V135Q130 137 157 142T202
164T231 216T242 313L254 1098Q254 1126 255 1153T257 1204T259 1249T263 1282L108 1276V1434H561L871 641Q885 605 901 560T934 470T963 385T985 318H987Q1013 389 1035 455T1084 588L1400 1434H1873V1299Q1838 1297 1811 1292T1764 1270T1735 1218T1727 1121L1758
336Q1759 308 1759 281T1757 230T1754 185T1750 152L1904 158V0H1335V135Q1369 137 1397 142T1444 164T1473 216T1481 313L1464 747Q1463 765 1461 805T1457 896T1452 1000T1447 1102H1445Z" />
<glyph unicode="N" glyph-name="N" horiz-adv-x="1583" d="M1365 -20H1191L536 817Q484 884 424 970H422L425 336Q425 308 425 281T423 230T421 185T417 152L571 158V0H104V135Q138 137 165 141T211 163T240 216T250 313L245 1098Q245 1126 245 1153T247 1204T249
1249T253 1282L99 1276V1434H420L1046 644Q1098 578 1131 531T1189 448H1191V1098Q1191 1126 1191 1153T1193 1204T1195 1249T1199 1282L1045 1276V1434H1511V1299Q1476 1297 1449 1292T1404 1270T1375 1218T1365 1121V-20Z" />
<glyph unicode="O" glyph-name="O" horiz-adv-x="1574" d="M394 741Q394 676 403 605T432 465T484 332T561 222T668 146T806 117Q877 117 932 141T1028 208T1099 306T1146 424T1172 553T1180 682Q1180 820 1156 936T1082 1137T956 1269T776 1317Q703 1317 647
1293T548 1225T476 1126T429 1005T402 874T394 741ZM72 717Q72 803 91 892T150 1064T249 1220T389 1349T569 1435T791 1467Q915 1467 1016 1435T1197 1348T1333 1220T1429 1063T1485 891T1503 717Q1503 632 1484 544T1425 372T1326 215T1186 86T1006 -1T785 -33Q655
-33 552 -2T370 82T234 208T142 364T89 538T72 717Z" />
<glyph unicode="P" glyph-name="P" horiz-adv-x="1308" d="M693 519Q669 518 650 518T613 517T579 517T544 518V337Q544 281 542 230T536 152L710 158V0H102V135Q136 137 163 141T209 163T238 216T248 313V1098Q248 1126 248 1153T250 1204T252 1249T256 1282L102
1276V1434L685 1438Q818 1439 926 1413T1112 1333T1231 1193T1273 989Q1274 903 1239 822T1133 674T952 566T693 519ZM636 665Q720 665 781 686T881 750T938 853T957 992Q957 1060 944 1109T909 1191T859 1245T800 1276T739 1290T682 1294Q649 1294 624 1289T581
1267T554 1218T544 1132V671Q566 669 589 667T636 665Z" />
<glyph unicode="Q" glyph-name="Q" horiz-adv-x="1576" d="M73 717Q73 803 92 892T151 1064T250 1220T390 1349T570 1435T792 1467Q916 1467 1017 1435T1198 1348T1334 1220T1430 1063T1486 891T1504 717Q1504 615 1475 509T1389 307T1244 134T1042 13V11Q1086
11 1122 7T1193 -9T1261 -44T1337 -104Q1407 -170 1449 -210T1519 -272T1569 -301T1626 -309V-446H1538Q1467 -446 1420 -443T1335 -429T1263 -396T1185 -335Q1120 -278 1070 -224T974 -127T878 -59T766 -33Q640 -33 540 -2T362 83T231 210T141 366T90 539T73 717ZM395
741Q395 676 404 605T433 465T485 332T562 222T669 146T807 117Q878 117 933 141T1029 208T1100 306T1147 424T1173 553T1181 682Q1181 820 1157 936T1083 1137T957 1269T777 1317Q704 1317 648 1293T549 1225T477 1126T430 1005T403 874T395 741Z" />
<glyph unicode="R" glyph-name="R" horiz-adv-x="1404" d="M1147 327Q1181 276 1208 240T1260 181T1313 147T1376 135V0H1039Q1003 26 966 76T888 193L738 438Q712 480 691 508T652 558Q635 557 622 557T596 557Q584 557 572 557T544 558V337Q544 281 542 230T536
152L710 158V0H102V135Q136 137 163 141T209 163T238 216T248 313V1098Q248 1126 248 1153T250 1204T252 1249T256 1282L102 1276V1434L685 1438Q818 1438 925 1416T1110 1344T1228 1212T1269 1013Q1270 945 1248 882T1182 765T1070 670T910 602V600Q948 585 986
549T1051 472L1147 327ZM644 705Q729 705 789 723T887 780T943 877T961 1013Q961 1079 946 1125T907 1203T853 1252T791 1279T732 1291T682 1294Q649 1294 624 1289T581 1267T554 1218T544 1132V712Q568 709 593 707T644 705Z" />
<glyph unicode="S" glyph-name="S" horiz-adv-x="1225" d="M634 115Q689 115 734 130T812 171T863 233T881 308Q881 362 852 401T775 469T669 522T552 569Q453 609 368 655T221 761T124 898T89 1076Q89 1118 99 1163T132 1252T192 1335T282 1403T406 1450T568
1467Q608 1467 654 1461T746 1442T834 1412T911 1369H913L906 1453H1064V974H930Q902 1149 811 1234T575 1319Q531 1319 492 1306T422 1270T373 1214T355 1143Q355 1095 375 1057T436 986T539 922T686 857Q737 836 792 811T899 756T997 688T1078 604T1133 503T1154
380Q1154 289 1117 213T1010 83T844 -2T628 -33Q588 -33 543 -27T452 -8T361 24T274 68H272L279 -19H121V460H255Q269 374 303 310T386 202T499 137T634 115Z" />
<glyph unicode="T" glyph-name="T" horiz-adv-x="1331" d="M1285 1434L1297 970H1162Q1162 1133 1095 1215T909 1297L811 1296V336Q811 308 811 281T809 230T807 185T803 152L967 158V0H369V135Q403 136 430 141T476 164T505 216T515 313V1294H420Q303 1294 236
1215T167 970H32L44 1434H1285Z" />
<glyph unicode="U" glyph-name="U" horiz-adv-x="1556" d="M1361 608Q1361 431 1318 309T1198 111T1017 1T789 -33Q673 -33 585 -11T431 53T321 153T249 281T211 433T199 602V1098Q199 1126 199 1153T201 1204T203 1249T207 1282L53 1276V1434H642V1299Q607 1297
580 1292T535 1270T506 1218T496 1121V558Q496 424 525 340T603 207T712 141T838 123Q918 123 981 150T1089 231T1156 368T1179 561V1098Q1179 1126 1179 1153T1181 1204T1183 1249T1187 1282L1033 1276V1434H1507V1299Q1472 1297 1445 1292T1400 1270T1371 1218T1361
1121V608Z" />
<glyph unicode="V" glyph-name="V" horiz-adv-x="1449" d="M690 677Q708 635 722 599T750 528T776 460T806 386H808Q831 447 856 522T907 667L1062 1096Q1068 1113 1077 1138T1097 1190T1120 1241T1146 1282V1284L989 1276V1434H1450V1299Q1416 1297 1386 1285T1330
1247T1279 1180T1233 1080L824 -12H656L184 1087Q173 1112 163 1139T144 1193T131 1243T126 1282L17 1276V1434H620V1299H609Q554 1299 520 1279T485 1212Q485 1182 501 1141L690 677Z" />
<glyph unicode="W" glyph-name="W" horiz-adv-x="2080" d="M1195 1434L1427 679Q1449 607 1466 535T1501 384H1503Q1521 453 1541 522T1581 667L1695 1096Q1709 1145 1729 1196T1779 1282V1284L1622 1276V1434H2083V1299Q2049 1297 2018 1285T1960 1248T1909 1181T1866
1080L1531 -12H1350L1107 721Q1080 802 1064 877T1033 1023H1031Q1020 953 1006 889T970 756L737 -12H559L194 1091Q183 1116 173 1143T154 1195T141 1243T136 1282L27 1276V1434H630V1299H618Q562 1299 531 1280T499 1210Q498 1196 501 1180T509 1145L632 677Q641
642 649 611T666 547T683 475T701 387H703Q708 405 717 439T737 515T761 602T785 687T806 759T820 806L1010 1434H1195Z" />
<glyph unicode="X" glyph-name="X" horiz-adv-x="1432" d="M652 1299Q586 1299 556 1284T525 1239Q525 1222 535 1202T563 1159L743 927H745L901 1143Q922 1172 938 1193T969 1229T995 1257T1021 1282V1284L868 1276V1434H1334V1299Q1298 1294 1264 1278T1194
1234T1122 1165T1044 1067L847 798L1233 307Q1268 262 1295 224T1340 152L1423 158V0H811V135Q874 135 899 148T925 185Q925 203 912 226T879 275L671 539H669L490 291Q469 262 453 241T425 204T401 176T377 152V150L523 158V0H72V135Q130 148 190 200T326 354L564
672L234 1089Q199 1134 173 1185T131 1282L28 1276V1434H652V1299Z" />
<glyph unicode="Y" glyph-name="Y" horiz-adv-x="1365" d="M858 568V336Q858 308 858 281T856 230T854 185T850 152L1014 158V0H416V135Q450 136 477 141T523 164T552 216T562 313V492L184 1087Q169 1111 155 1138T130 1191T113 1241T106 1282L7 1276V1434H610V1299Q604
1299 599 1299T587 1300Q530 1300 497 1280T464 1219Q465 1202 470 1183T489 1141L646 884Q653 872 667 848T696 796T726 738T749 687H752Q762 710 786 759T848 887L954 1096Q962 1112 975 1137T1003 1189T1033 1241T1062 1282V1284L905 1276V1434H1357V1299Q1321
1293 1292 1279T1235 1240T1182 1175T1125 1080L858 568Z" />
<glyph unicode="Z" glyph-name="Z" horiz-adv-x="1237" d="M557 388Q513 322 470 261T381 146V144L755 136Q812 136 859 152T941 203T995 296T1014 438H1149L1137 0H82V154L695 1088Q733 1146 766 1193T838 1289V1291L487 1300Q430 1300 383 1285T301 1233T247
1139T228 997H93L105 1434H1147V1280L557 388Z" />
<glyph unicode="[" glyph-name="bracketleft" horiz-adv-x="791" d="M129 1546H784V1401L394 1395L385 -371L788 -377V-522H127L129 1546Z" />
<glyph unicode="\" glyph-name="backslash" horiz-adv-x="1432" d="M51 1427L1221 -555L1380 -450L237 1547L51 1427Z" />
<glyph unicode="]" glyph-name="bracketright" horiz-adv-x="791" d="M662 -522H7V-377L397 -371L406 1395L3 1401V1546H664L662 -522Z" />
<glyph unicode="^" glyph-name="asciicircum" horiz-adv-x="1686" d="M936 1467L1563 894H1282L837 1316H835L391 904H123L754 1467H936Z" />
<glyph unicode="_" glyph-name="underscore" horiz-adv-x="1704" d="M221 -102L1480 -111V-317H221V-102Z" />
<glyph unicode="`" glyph-name="grave" horiz-adv-x="578" d="M145 1374Q121 1397 106 1428T91 1492Q91 1512 99 1532T121 1567T155 1592T198 1602Q233 1602 266 1582T320 1527L488 1241L394 1158L145 1374Z" />
<glyph unicode="a" glyph-name="a" horiz-adv-x="1074" d="M631 471Q573 465 522 450T434 411T375 352T353 274Q354 245 364 225T389 192T425 173T468 167Q516 167 557 187T630 242L631 471ZM106 787Q106 847 139 897T231 982T369 1037T538 1057Q628 1057 698
1034T817 963T891 841T917 665Q917 613 917 574T916 498T916 421T915 329Q915 314 915 293T914 248T912 199T908 150L1040 156V0H653Q649 29 648 48T645 94H643Q573 24 497 -4T340 -33Q274 -33 222 -13T135 45T80 131T61 240Q61 305 84 357T147 450T243 521T361
571T494 602T632 616V723Q632 764 625 798T601 858T556 897T486 910Q444 908 408 893T346 851Q362 834 366 812T371 775Q371 753 363 731T338 690T295 659T233 647Q203 648 179 659T139 689T115 733T106 787Z" />
<glyph unicode="b" glyph-name="b" horiz-adv-x="1173" d="M128 1157Q128 1194 129 1242T136 1336L-8 1330V1485Q63 1485 117 1491T210 1506T272 1525T307 1546H418V947Q487 1009 558 1033T694 1057Q786 1057 862 1021T992 917T1077 753T1107 538Q1107 414 1073
310T975 129T818 10T610 -33Q582 -33 546 -29T470 -11T390 27T313 91H311L252 0H128V1157ZM583 872Q532 870 489 847T418 785V307Q418 253 432 217T468 158T519 127T575 117Q642 117 686 150T758 237T796 362T807 507Q807 579 794 645T754 761T685 842T583 872Z"
/>
<glyph unicode="c" glyph-name="c" horiz-adv-x="1060" d="M713 756Q713 774 719 799T738 845Q727 865 710 878T673 899T634 910T599 913Q547 913 504 890T430 820T381 705T363 548Q363 470 377 398T425 271T512 183T645 150Q686 150 727 161T807 193T879 243T941
307L1035 216Q979 139 920 91T801 15T682 -23T567 -33Q463 -33 372 2T212 104T103 268T63 490Q63 605 102 708T211 889T379 1011T596 1057Q693 1057 767 1033T890 970T965 881T990 776Q990 745 981 717T953 668T907 635T846 623Q808 623 783 636T742 668T720 711T713
756Z" />
<glyph unicode="d" glyph-name="d" horiz-adv-x="1221" d="M1045 1546V329Q1045 314 1045 293T1043 248T1041 199T1037 150L1170 156V0H781L770 95H768Q700 24 628 -4T479 -33Q387 -33 311 3T181 107T96 271T66 486Q66 610 102 714T205 895T365 1014T573 1057Q630
1057 673 1046T755 1020V1156Q755 1171 755 1192T757 1237T759 1286T763 1335L619 1329V1485Q690 1485 744 1491T837 1506T899 1525T934 1546H1045ZM586 154Q638 154 683 181T755 251V867Q733 882 694 893T610 905Q539 903 492 870T417 782T378 658T366 517Q366
451 378 386T416 270T485 186T586 154Z" />
<glyph unicode="e" glyph-name="e" horiz-adv-x="1102" d="M585 913Q540 913 505 896T443 849T401 777T377 683H754Q752 746 739 790T704 861T651 901T585 913ZM1037 551L364 539Q364 455 379 384T429 261T518 180T653 150Q684 150 722 158T799 184T879 231T954
304L1046 217Q991 138 929 89T805 13T682 -23T569 -33Q456 -33 363 5T203 114T100 285T63 510Q63 618 99 716T203 891T364 1012T575 1057Q632 1057 688 1047T796 1014T892 952T969 858T1019 726T1037 551Z" />
<glyph unicode="f" glyph-name="f" horiz-adv-x="755" d="M497 861L500 333Q500 318 500 297T498 250T496 199T492 150L635 156V0H88V133Q131 133 155 146T192 183T207 240T210 315V856L62 853V1024H210V1084Q210 1208 238 1295T318 1438T445 1520T612 1546Q684
1546 734 1530T815 1488T859 1430T873 1366Q873 1338 865 1313T839 1269T797 1239T739 1228Q682 1228 651 1261T619 1346Q619 1363 624 1386Q614 1397 600 1400T578 1403Q552 1402 536 1390T511 1360T499 1320T495 1276L496 1024H725V866L497 861Z" />
<glyph unicode="g" glyph-name="g" horiz-adv-x="1140" d="M583 -114Q560 -113 533 -112T479 -109T424 -105T375 -98Q341 -124 325 -164T309 -240Q309 -280 328 -312T383 -366T469 -401T583 -413Q655 -413 710 -398T803 -360T860 -307T879 -249Q879 -186 807 -154T583
-114ZM553 919Q512 919 481 899T427 846T393 768T381 677Q381 623 392 573T426 485T481 423T556 400Q597 400 628 420T681 473T714 547T725 631Q725 685 715 736T683 828T629 894T553 919ZM1074 985Q1059 985 1043 991T1012 1008T988 1033T975 1064Q961 1061 947
1046T922 1011T902 970T890 932Q950 881 981 814T1012 668Q1012 579 973 505T870 376T721 292T547 262Q519 262 487 265T423 269Q378 269 348 253T317 207Q317 188 331 175T376 154T457 141T579 131Q697 124 793 106T959 50T1066 -46T1104 -195Q1104 -253 1080
-302T1015 -392T917 -462T796 -513T663 -544T525 -555Q392 -555 303 -533T159 -473T81 -387T58 -287Q58 -255 67 -222T99 -159T159 -101T252 -52Q210 -40 181 -21T134 21T108 72T100 129Q100 155 110 186T143 248T205 305T300 349V351Q255 368 218 396T155 462T113
547T98 649Q98 739 136 814T239 943T385 1027T554 1057Q581 1057 613 1054T678 1043T742 1023T799 993Q816 1040 840 1084T896 1164T969 1220T1059 1241Q1128 1241 1164 1205T1201 1109Q1201 1090 1195 1069T1175 1029T1136 998T1074 985Z" />
<glyph unicode="h" glyph-name="h" horiz-adv-x="1271" d="M1107 329Q1107 314 1107 293T1105 248T1103 199T1099 150L1232 156V0H695V133Q738 133 762 146T799 183T814 240T817 315L816 607Q815 742 775 805T650 868Q597 867 548 846T463 793V329Q463 314 463
293T461 248T459 199T455 150L588 156V0H51V133Q94 133 118 146T155 183T170 240T173 315V1157Q173 1194 174 1242T181 1336L37 1330V1485Q108 1485 162 1491T255 1506T317 1525T352 1546H463V943Q493 967 531 987T610 1023T690 1048T761 1057Q855 1057 920 1031T1027
949T1088 808T1107 604V329Z" />
<glyph unicode="i" glyph-name="i" horiz-adv-x="670" d="M495 329Q495 314 495 293T493 248T491 199T487 150L620 156V0H83V133Q126 133 150 146T187 183T202 240T205 315V655Q205 692 206 740T213 834L69 828V983Q140 983 194 989T287 1004T349 1023T384 1044H495V329ZM525
1393Q525 1358 514 1328T484 1275T436 1239T373 1226Q338 1226 309 1239T258 1275T226 1328T214 1393Q214 1428 226 1459T260 1513T310 1549T370 1562Q403 1562 431 1549T481 1513T513 1459T525 1393Z" />
<glyph unicode="j" glyph-name="j" horiz-adv-x="603" d="M185 655Q185 692 186 740T193 834L49 828V983Q120 983 174 989T267 1004T329 1023T364 1044H475V4Q475 -138 442 -243T351 -417T214 -521T43 -555Q-14 -555 -56 -541T-125 -503T-166 -449T-180 -387Q-180
-359 -171 -334T-145 -290T-103 -259T-46 -247Q8 -247 40 -281T72 -369Q72 -385 69 -403Q74 -407 85 -409T105 -412Q133 -412 150 -397T176 -358T187 -308T190 -259L185 655ZM494 1393Q494 1358 483 1328T453 1275T405 1239T342 1226Q307 1226 278 1239T227 1275T195
1328T183 1393Q183 1428 195 1459T229 1513T279 1549T339 1562Q372 1562 400 1549T450 1513T482 1459T494 1393Z" />
<glyph unicode="k" glyph-name="k" horiz-adv-x="1216" d="M464 329Q464 314 464 293T462 248T460 199T456 150L589 156V0H52V133Q95 133 119 146T156 183T171 240T174 315V1157Q174 1194 175 1242T182 1336L38 1330V1485Q109 1485 163 1491T256 1506T318 1525T353
1546H464V612H564L710 782Q736 812 753 831T790 868V870L681 868V1024H1143V893Q1089 887 1045 870T965 831T901 782T851 732L720 586V584Q736 576 750 566T780 541T814 506T854 456L991 277Q1003 261 1022 237T1065 189T1118 150T1179 133V0H944Q911 0 884 12T830
46T776 102T716 179Q689 215 659 257T602 339T550 413T511 469L464 467V329Z" />
<glyph unicode="l" glyph-name="l" horiz-adv-x="639" d="M463 329Q463 314 463 293T461 248T459 199T455 150L588 156V0H51V133Q94 133 118 146T155 183T170 240T173 315V1157Q173 1194 174 1242T181 1336L37 1330V1485Q108 1485 162 1491T255 1506T317 1525T352
1546H463V329Z" />
<glyph unicode="m" glyph-name="m" horiz-adv-x="1885" d="M1109 329Q1109 314 1109 293T1107 248T1105 199T1101 150L1234 156V0H707V133Q746 133 768 146T802 183T816 240T819 315L818 635Q818 702 807 747T777 819T730 857T667 868Q618 868 574 846T497 793V329Q497
314 497 293T495 248T493 199T489 150L612 156V0H85V133Q128 133 152 146T189 183T204 240T207 315V660Q207 697 208 742T215 834L71 828V983Q142 983 196 989T289 1004T351 1023T386 1044H487L496 943H499Q529 966 565 987T638 1023T716 1048T797 1057Q891 1057
952 1024T1051 922Q1088 953 1129 978T1213 1020T1300 1047T1385 1057Q1467 1057 1530 1035T1635 962T1698 830T1720 631V329Q1720 314 1720 293T1718 248T1716 199T1712 150L1845 156V0H1328V133Q1363 133 1383 146T1414 183T1427 240T1430 315L1429 629Q1429
698 1417 744T1383 817T1331 855T1263 866Q1211 865 1169 846T1092 799Q1100 757 1104 709T1109 604V329Z" />
<glyph unicode="n" glyph-name="n" horiz-adv-x="1303" d="M1139 329Q1139 314 1139 293T1137 248T1135 199T1131 150L1264 156V0H727V133Q770 133 794 146T831 183T846 240T849 315L848 607Q847 742 807 805T682 868Q629 868 580 846T495 793V329Q495 314 495
293T493 248T491 199T487 150L620 156V0H83V133Q126 133 150 146T187 183T202 240T205 315V660Q205 697 206 742T213 834L69 828V983Q140 983 194 989T287 1004T349 1023T384 1044H485L494 943H497Q527 966 565 987T644 1023T723 1048T793 1057Q887 1057 952 1031T1059
949T1120 808T1139 604V329Z" />
<glyph unicode="o" glyph-name="o" horiz-adv-x="1159" d="M575 913Q515 911 475 879T410 794T375 677T364 544Q364 465 376 388T416 249T487 150T593 112Q654 113 692 146T753 231T784 349T793 480Q793 556 783 633T747 773T680 874T575 913ZM579 1057Q689 1057
783 1021T947 917T1055 752T1095 531Q1095 402 1058 298T953 120T791 7T585 -33Q474 -33 379 3T213 107T103 271T63 489Q63 616 104 721T215 900T380 1016T579 1057Z" />
<glyph unicode="p" glyph-name="p" horiz-adv-x="1231" d="M641 872Q590 870 547 846T476 783V158Q486 150 502 143T538 131T580 123T624 120Q695 120 741 152T815 239T854 363T865 507Q865 579 852 645T812 761T743 842T641 872ZM186 660Q186 697 187 742T194
834L50 828V983Q121 983 175 989T267 1004T329 1023T364 1044H465L475 946H478Q548 1008 618 1032T752 1057Q844 1057 920 1021T1050 917T1135 753T1165 538Q1165 414 1129 310T1026 129T866 10T658 -33Q601 -33 558 -22T476 4V-193Q476 -208 476 -229T474 -274T472
-323T468 -372L601 -366V-522H64V-389Q107 -389 131 -376T168 -339T183 -282T186 -207V660Z" />
<glyph unicode="q" glyph-name="q" horiz-adv-x="1174" d="M1046 -193Q1046 -208 1046 -229T1044 -274T1042 -323T1038 -372L1171 -366V-522H634V-389Q676 -389 700 -376T737 -339T752 -282T756 -207L758 82H756Q690 18 621 -7T479 -33Q387 -33 311 3T181 107T96
271T66 486Q66 610 102 714T206 895T367 1014T578 1057Q635 1057 679 1050T757 1034T818 1018T865 1011Q880 1011 901 1019T935 1044H1046V-193ZM586 152Q637 152 683 178T756 247V728Q756 785 741 820T703 875T651 900T597 907Q529 907 484 873T413 784T377 658T366
517Q367 451 379 386T418 269T485 185T586 152Z" />
<glyph unicode="r" glyph-name="r" horiz-adv-x="984" d="M792 1057Q828 1057 860 1047T917 1017T956 964T971 887Q971 863 963 838T938 791T894 757T827 743Q806 743 784 748T744 767T712 804T695 863Q664 863 633 843T574 792T525 726T495 663V329Q495 314 495
293T493 248T491 199T487 150L620 156V0H83V133Q126 133 150 146T187 183T202 240T205 315V660Q205 697 206 742T213 834L69 828V983Q140 983 194 989T287 1004T349 1023T384 1044H485L494 868H497Q517 895 545 928T611 989T694 1037T792 1057Z" />
<glyph unicode="s" glyph-name="s" horiz-adv-x="993" d="M225 338Q229 291 255 250T323 179T421 132T543 115Q568 115 593 121T639 139T671 171T684 217Q684 246 669 266T623 304T549 339T446 379Q382 404 317 430T199 495T113 588T79 727Q79 786 101 845T171
951T291 1027T465 1057Q493 1057 525 1053T591 1041T655 1019T711 988H713L710 1046H866V684H734Q725 737 701 779T639 851T555 897T452 913Q426 913 402 907T358 888T328 855T317 804Q317 768 336 745T389 704T468 673T567 640Q645 613 711 581T825 507T900 410T928
283Q928 203 897 144T813 45T694 -13T555 -33Q511 -33 467 -27T383 -11T310 15T252 48H250L257 -14H101L93 338H225Z" />
<glyph unicode="t" glyph-name="t" horiz-adv-x="846" d="M34 1024Q87 1025 133 1050T215 1114T277 1197T315 1281H466L465 1024H726V866L465 861Q464 716 464 621T463 468T462 386T462 357Q462 321 466 286T484 222T522 176T586 158Q599 158 618 162T662 178T715
215T772 281L871 189Q815 107 759 62T652 -4T559 -29T489 -33Q455 -33 419 -28T347 -7T280 35T224 107T185 213T171 361L174 855L34 853V1024Z" />
<glyph unicode="u" glyph-name="u" horiz-adv-x="1266" d="M1091 329Q1090 272 1089 248T1087 199T1083 150L1216 156V0H827L816 107H814Q783 80 750 55T679 10T599 -21T507 -33Q416 -33 352 -7T246 75T186 215T167 420V655Q167 692 168 740T175 834L31 828V983Q102
983 156 989T249 1004T311 1023T346 1044H458V417Q458 282 492 219T605 156Q630 156 657 163T710 184T759 216T801 254V655Q801 692 802 740T809 834L665 828V983Q736 983 790 989T882 1004T944 1023T979 1044H1091V329Z" />
<glyph unicode="v" glyph-name="v" horiz-adv-x="1101" d="M492 893Q454 891 439 873T423 825Q423 805 428 782T443 733L615 309H617L766 731Q784 781 799 812T834 874V876L707 868V1024H1095V893Q1059 887 1030 860T977 795T936 719T906 648L644 -6H465L141 704Q124
741 115 765T102 807T95 839T88 872L12 868V1024H492V893Z" />
<glyph unicode="w" glyph-name="w" horiz-adv-x="1660" d="M980 1024L1144 459Q1156 416 1169 366T1194 274H1196Q1202 316 1216 364T1243 453L1322 712Q1331 740 1338 762T1352 804T1367 840T1383 874V876L1265 868V1024H1654V893Q1613 893 1582 866T1529 802T1492
728T1470 671L1237 -6H1020L879 431Q873 447 864 476T846 540T826 612T806 682H804Q798 639 785 586T757 481T730 389T711 331L598 -6H395L147 704Q133 743 125 767T112 808T103 840T96 872L16 868V1024H507V893Q464 890 447 867T429 808Q428 791 431 772T441 733L510
483Q522 438 533 389T552 288H554Q559 310 564 333T575 382T589 440T608 510L758 1024H980Z" />
<glyph unicode="x" glyph-name="x" horiz-adv-x="1122" d="M920 285Q948 253 973 221T1018 152L1088 156V0H605V131Q641 133 657 142T673 168Q671 196 638 232L517 360H515L420 246Q415 239 404 226T378 197T351 169T328 150V148L421 156V0H82V131Q124 148 160
182T238 265L416 469L216 705Q203 720 186 741T151 785T119 831T99 872L42 868V1024H496V893Q469 891 457 882T445 859Q445 843 457 823T489 780L584 670H586L663 763Q688 793 712 821T763 874V876L664 868V1024H1025V893Q962 867 914 827T819 730L682 562L920
285Z" />
<glyph unicode="y" glyph-name="y" horiz-adv-x="1128" d="M657 274Q666 300 679 342T708 437T744 553T786 683Q792 702 801 727T821 780T846 832T873 874V876L756 868V1024H1120V893Q1056 877 1015 815T941 659L684 -72Q641 -197 602 -288T520 -439T425 -526T304
-555Q264 -555 230 -543T171 -509T132 -456T117 -387Q117 -359 127 -334T154 -289T196 -258T250 -246Q271 -246 290 -254T323 -278T346 -314T355 -360Q355 -373 352 -388V-390Q373 -390 396 -362T442 -287T487 -180T527 -54L202 595Q173 652 155 694T127 767T112
824T104 872L10 868V1024H520V893Q472 887 453 865T434 813Q434 794 440 774T455 733L655 274H657Z" />
<glyph unicode="z" glyph-name="z" horiz-adv-x="1053" d="M72 0V148L542 769Q559 791 576 811T608 847T634 874T648 889V891L371 887Q335 886 310 866T266 810T237 729T217 629H90L119 1024H949V894L492 275Q462 234 433 204T377 150V148L665 141Q713 141 746
161T802 216T837 299T858 402H985L955 0H72Z" />
<glyph unicode="{" glyph-name="braceleft" horiz-adv-x="754" d="M172 537Q246 528 309 500T418 426T491 318T517 181Q517 142 514 97T506 6T498 -78T494 -145Q494 -228 506 -280T545 -361T613 -400T711 -411Q718 -411 724 -411T739 -410V-555H682Q449 -555 333
-444T217 -117Q217 -72 220 -20T227 86T234 189T238 279Q238 331 229 367T197 425T136 456T41 466H-6V612H41Q98 612 136 620T196 649T228 703T238 791Q238 872 228 957T217 1134Q217 1351 333 1453T682 1556H739V1412Q726 1413 715 1413T692 1413Q640 1413 603
1404T541 1367T506 1290T494 1163Q494 1136 497 1103T505 1034T512 960T516 887Q516 812 491 752T419 647T310 575T172 541V537Z" />
<glyph unicode="|" glyph-name="bar" horiz-adv-x="531" d="M407 1556L399 -555H130L124 1556H407Z" />
<glyph unicode="}" glyph-name="braceright" horiz-adv-x="754" d="M582 541Q507 548 444 575T335 646T264 751T238 887Q238 922 241 959T249 1033T256 1103T260 1163Q260 1241 249 1290T213 1366T152 1403T62 1413Q51 1413 40 1413T15 1412V1556H72Q305 1556
421 1454T537 1134Q537 1043 527 958T516 791Q516 738 525 704T557 649T618 621T713 612H760V466H713Q656 466 618 457T558 425T526 367T516 279Q516 239 519 189T526 86T533 -19T537 -117Q537 -333 421 -444T72 -555H15V-410Q23 -410 29 -410T43 -411Q100 -411
141 -401T208 -361T247 -280T260 -145Q260 -118 257 -79T249 6T241 96T237 181Q237 256 263 318T335 425T445 499T582 537V541Z" />
<glyph unicode="~" glyph-name="asciitilde" horiz-adv-x="1106" d="M351 565Q309 565 275 557T211 536T154 504T99 466V708Q131 734 160 754T220 789T284 810T359 817Q414 817 455 806T528 777T586 740T640 702T699 674T773 662Q841 662 900 688T1009 760V518Q967
470 907 441T765 411Q714 411 675 422T603 451T543 488T486 525T425 553T351 565Z" />
<glyph unicode="&#xa0;" glyph-name="uni00A0" horiz-adv-x="539" />
<glyph unicode="&#xa1;" glyph-name="exclamdown" horiz-adv-x="486" d="M94 898Q94 931 106 960T140 1010T188 1044T244 1057Q274 1057 300 1045T347 1011T379 960T391 898Q391 865 379 836T347 784T299 750T242 737Q210 737 183 749T136 784T105 835T94 898ZM173
587H312L389 -257Q392 -290 384 -323T358 -382T310 -426T242 -443Q201 -443 172 -426T125 -383T100 -323T96 -257L173 587Z" />
<glyph unicode="&#xa2;" glyph-name="cent" horiz-adv-x="1157" d="M754 756Q754 774 760 799T779 845Q768 865 751 878T714 899T675 910T640 913Q588 913 545 890T471 820T422 705T404 548Q404 470 418 398T466 271T553 183T686 150Q727 150 768 161T848 193T920
243T982 307L1076 216Q1031 154 984 111T889 39T793 -5T698 -26L697 -280H528L527 -26Q437 -14 360 26T226 132T137 288T104 490Q104 592 134 684T221 851T356 977T532 1047L531 1282H712L710 1053Q790 1044 850 1018T950 955T1011 871T1031 776Q1031 745 1022
717T994 668T948 635T887 623Q849 623 824 636T783 668T761 711T754 756Z" />
<glyph unicode="&#xa3;" glyph-name="sterling" horiz-adv-x="1173" d="M545 604Q548 589 549 572T551 538Q551 463 517 393T412 274V272Q461 292 501 298T576 305Q633 305 677 289T757 254T823 218T882 202Q905 202 927 230T954 320H1088Q1085 244 1069 180T1023
68T950 -6T850 -33Q809 -33 771 -20T695 13T622 56T548 99T471 132T389 148Q380 110 363 78T323 20T274 -19T220 -33Q188 -33 166 -24T131 2T111 38T105 81Q105 111 118 139T155 193T211 238T282 272Q289 285 295 303T307 342T315 381T318 417Q318 469 311 513T293
600L132 597V768H247Q236 813 230 862T223 973Q223 1091 258 1183T353 1338T491 1434T654 1467Q749 1467 815 1442T922 1379T981 1297T1000 1213Q1000 1182 991 1154T965 1105T922 1072T863 1060Q827 1060 802 1073T760 1105T737 1145T729 1185Q729 1212 736 1240T764
1292Q754 1304 733 1314T676 1324Q621 1324 584 1299T525 1233T493 1144T483 1048Q483 967 492 898T513 768H835V610L545 604Z" />
<glyph unicode="&#xa4;" glyph-name="currency" horiz-adv-x="1160" d="M276 999L378 871Q420 897 470 912T580 927Q640 927 690 912T782 870L884 998L1032 880L908 739Q969 635 969 520Q969 405 914 309L1032 175L884 56L786 179Q700 126 579 126Q519 126 468
139T374 178L277 56L128 175L246 309Q191 405 191 520Q191 577 206 632T251 739L128 880L276 999ZM580 777Q540 777 514 753T471 693T448 619T441 550Q441 512 447 465T469 378T511 310T580 282Q622 282 649 309T691 377T713 465T720 550Q720 580 713 619T690 693T647
752T580 777Z" />
<glyph unicode="&#xa5;" glyph-name="yen" horiz-adv-x="1479" d="M915 286Q914 243 913 208T908 152L1072 158V0H474V135Q507 136 532 140T576 159T605 203T619 283L396 282V441H620V543H396V701H496L242 1087Q227 1111 213 1138T188 1191T171 1241T164 1282L65
1276V1434H668V1299Q662 1299 657 1299T646 1300Q589 1300 555 1280T520 1218Q520 1186 547 1141L704 884Q711 872 725 849T754 797T784 740T807 689H810Q829 735 906 887L1012 1096Q1020 1112 1033 1137T1061 1189T1091 1241T1120 1282V1284L963 1276V1434H1415V1299Q1379
1293 1350 1279T1293 1240T1240 1175T1183 1080L980 697H1120V546H916V438H1120V286H915Z" />
<glyph unicode="&#xa6;" glyph-name="brokenbar" horiz-adv-x="507" d="M369 1557L361 767H144L138 1557H369ZM369 231L361 -555H144L138 231H369Z" />
<glyph unicode="&#xa7;" glyph-name="section" horiz-adv-x="1124" d="M325 678Q325 631 348 590T408 511T494 441T591 376T688 317T773 260Q787 290 795 325T803 393Q803 440 780 481T720 560T634 630T537 693T440 752T355 809Q340 778 333 745T325 678ZM729
-155Q729 -113 712 -77T667 -9T603 50T529 102T454 148T385 190Q329 226 276 268T181 360T115 472T90 609Q90 690 133 772T249 924Q201 984 185 1049T168 1174Q168 1213 177 1256T207 1342T260 1423T338 1491T441 1538T574 1556Q658 1556 728 1532T848 1468T925
1380T953 1280Q953 1250 945 1224T920 1178T879 1147T823 1135Q788 1135 764 1147T725 1177T703 1215T696 1253Q696 1275 701 1296T719 1338Q704 1370 666 1390T582 1410Q535 1410 501 1395T444 1355T410 1301T397 1241Q398 1195 415 1157T459 1085T522 1024T596
971T674 923T748 878Q803 842 855 801T947 709T1011 597T1035 463Q1035 423 1023 382T990 299T940 219T876 145Q889 125 903 102T930 51T950 -8T958 -77Q958 -136 936 -204T864 -330T737 -428T546 -467Q462 -467 392 -443T272 -379T195 -291T167 -191Q167 -161
175 -135T200 -89T241 -58T296 -46Q331 -46 355 -58T395 -89T417 -127T424 -164Q424 -186 419 -207T401 -249Q408 -266 422 -279T456 -301T498 -316T544 -321Q591 -321 626 -307T684 -269T718 -216T729 -155Z" />
<glyph unicode="&#xa8;" glyph-name="dieresis" horiz-adv-x="874" d="M395 1382Q395 1350 384 1322T355 1273T311 1240T259 1228Q231 1228 207 1240T164 1273T134 1322T123 1382Q123 1414 134 1442T164 1492T208 1525T260 1538Q289 1538 314 1526T357 1492T385
1443T395 1382ZM751 1382Q751 1350 740 1322T711 1273T667 1240T615 1228Q587 1228 563 1240T520 1273T490 1322T479 1382Q479 1414 490 1442T520 1492T564 1525T616 1538Q645 1538 670 1526T713 1492T741 1443T751 1382Z" />
<glyph unicode="&#xa9;" glyph-name="copyright" horiz-adv-x="1874" d="M968 1066Q914 1066 867 1040T784 967T728 856T708 715Q708 644 729 582T790 473T888 399T1020 371Q1092 371 1162 409T1293 521L1390 428Q1339 358 1281 313T1165 240T1053 203T955 192Q848
192 758 231T603 337T501 496T464 693Q464 752 477 813T516 931T581 1039T672 1126T791 1186T936 1208Q1005 1208 1064 1194T1182 1137Q1181 1143 1181 1153T1180 1172T1179 1190T1179 1201H1335V842H1199Q1191 903 1170 946T1117 1015T1047 1054T968 1066ZM95
697Q95 814 124 922T207 1124T337 1296T507 1429T712 1515T944 1546Q1067 1546 1177 1516T1380 1429T1547 1295T1673 1123T1752 920T1780 694Q1780 578 1751 471T1667 270T1536 100T1367 -31T1166 -116T941 -146Q753 -146 597 -83T330 92T157 359T95 697ZM240 697Q240
598 262 506T326 334T430 187T570 73T743 -1T947 -28Q1106 -28 1233 29T1450 186T1588 416T1637 697Q1637 796 1615 888T1551 1062T1447 1210T1309 1326T1140 1401T941 1428Q836 1428 744 1402T573 1327T434 1211T329 1063T263 889T240 697Z" />
<glyph unicode="&#xaa;" glyph-name="ordfeminine" horiz-adv-x="790" d="M282 950Q284 932 297 918T340 904Q390 904 440 954V1053Q410 1050 382 1043T332 1023T296 993T282 955V950ZM102 1265Q102 1304 123 1340T183 1405T273 1450T388 1467Q509 1467 574 1403T640
1200Q640 1174 640 1144T639 1083T639 1022T638 967Q638 957 639 945T644 922T655 904T674 896Q682 896 690 897T709 907L749 847Q718 805 674 779T584 752Q562 752 541 759T503 780T474 817T459 869H457Q442 840 420 819T373 782T321 760T273 752Q176 752 124
794T72 916Q72 974 105 1016T191 1086T309 1129T440 1150V1239Q440 1259 438 1279T429 1315T406 1342T363 1353Q343 1353 323 1347T288 1326Q296 1314 299 1297T303 1267Q303 1252 298 1234T280 1201T248 1176T200 1165Q152 1165 127 1194T102 1265Z" />
<glyph unicode="&#xab;" glyph-name="guillemotleft" horiz-adv-x="1011" d="M41 525V573L588 1142L685 1043L298 546V544L678 68L582 -26L41 525ZM491 530V577L840 986L936 907L731 562V559L933 213L838 133L491 530Z" />
<glyph unicode="&#xac;" glyph-name="logicalnot" horiz-adv-x="1190" d="M129 741L1050 736V306H871L865 544L129 541V741Z" />
<glyph unicode="&#xad;" glyph-name="uni00AD" horiz-adv-x="957" d="M103 761H854V554L103 547V761Z" />
<glyph unicode="&#xae;" glyph-name="registered" horiz-adv-x="1874" d="M1220 461Q1243 426 1260 402T1293 363T1326 340T1368 331V241H1153Q1129 260 1102 292T1049 370Q1003 447 978 491T940 558T922 591T911 609Q900 608 891 608T872 608Q863 608 854 608T833
609V468Q833 431 833 396T831 344L947 348V241H534V331Q558 332 576 335T606 351T625 386T632 452V970Q632 1010 634 1044T638 1096L534 1092V1199L921 1200Q1009 1200 1081 1185T1204 1137T1284 1051T1312 919Q1312 873 1300 830T1261 750T1190 684T1083 637V636Q1109
625 1128 602T1165 549L1220 461ZM890 725Q993 725 1045 774T1098 915Q1098 975 1078 1009T1030 1060T970 1081T918 1086Q876 1086 855 1064T833 975V731Q850 727 861 726T890 725ZM95 697Q95 814 124 922T207 1124T337 1296T507 1429T712 1515T944 1546Q1067 1546
1177 1516T1380 1429T1547 1295T1673 1123T1752 920T1780 694Q1780 578 1751 471T1667 270T1536 100T1367 -31T1166 -116T941 -146Q753 -146 597 -83T330 92T157 359T95 697ZM240 697Q240 598 262 506T326 334T430 187T570 73T743 -1T947 -28Q1106 -28 1233 29T1450
186T1588 416T1637 697Q1637 796 1615 888T1551 1062T1447 1210T1309 1326T1140 1401T941 1428Q836 1428 744 1402T573 1327T434 1211T329 1063T263 889T240 697Z" />
<glyph unicode="&#xaf;" glyph-name="overscore" horiz-adv-x="766" d="M92 1481H674V1292L92 1285V1481Z" />
<glyph unicode="&#xb0;" glyph-name="degree" horiz-adv-x="782" d="M232 1139Q232 1102 243 1069T276 1010T326 970T392 955Q428 955 457 970T508 1010T540 1068T552 1139Q552 1176 541 1209T508 1267T457 1308T391 1323Q356 1323 327 1308T276 1268T244 1209T232
1139ZM58 1139Q58 1209 85 1269T158 1373T265 1442T394 1467Q470 1467 531 1442T636 1373T702 1269T726 1139Q726 1069 699 1009T626 904T519 834T389 808Q313 808 252 833T148 903T82 1008T58 1139Z" />
<glyph unicode="&#xb1;" glyph-name="plusminus" horiz-adv-x="1139" d="M109 760L466 758V1054H671V758L1030 757V568L671 566V254H466V565L109 564V760ZM1030 1H109V181L1030 189V1Z" />
<glyph unicode="&#xb2;" glyph-name="twosuperior" horiz-adv-x="767" d="M260 1315Q277 1301 282 1282T288 1251Q288 1237 283 1220T265 1189T232 1164T184 1154Q136 1156 112 1187T88 1264Q88 1295 106 1330T159 1396T246 1447T367 1467Q419 1467 470 1455T561
1417T625 1350T650 1248Q650 1194 623 1150T551 1063T451 979T338 885Q323 872 313 861T296 839T282 817T268 791L520 786Q547 785 563 798T580 862H677L666 618H95Q96 689 113 743T158 842T222 924T300 998Q339 1033 364 1066T403 1130T422 1186T427 1232Q427
1295 401 1321T330 1348Q310 1348 289 1338T260 1315Z" />
<glyph unicode="&#xb3;" glyph-name="threesuperior" horiz-adv-x="748" d="M74 797Q74 820 81 841T103 879T137 904T181 914Q208 914 226 905T255 881T270 848T275 812Q275 806 274 797T269 778T260 757T246 740Q253 729 265 723T290 714T315 709T336 708Q396
708 430 746T464 846Q464 911 423 952T301 994Q285 994 265 993T232 991V1102Q250 1101 268 1100T303 1099Q342 1099 368 1112T409 1145T430 1191T437 1240Q437 1295 410 1325T331 1356Q304 1356 286 1348T259 1332Q276 1318 281 1299T287 1268Q287 1254 282 1237T265
1206T234 1181T187 1171Q139 1173 113 1201T87 1275Q87 1304 103 1338T154 1400T240 1448T364 1467Q423 1467 473 1454T561 1414T619 1347T640 1252Q640 1223 628 1194T595 1140T546 1097T486 1071V1069Q588 1049 633 993T679 852Q679 798 658 752T594 671T490
618T345 598Q282 598 232 615T146 659T93 723T74 797Z" />
<glyph unicode="&#xb4;" glyph-name="acute" horiz-adv-x="578" d="M184 1158L90 1241L258 1527Q279 1561 311 1581T379 1602Q403 1602 422 1593T456 1568T479 1532T487 1492Q487 1460 472 1429T433 1374L184 1158Z" />
<glyph unicode="&#xb5;" glyph-name="mu" horiz-adv-x="1253" d="M1005 1024L1003 291Q1003 279 1003 261T1008 227T1023 199T1053 187Q1067 187 1085 194T1128 223L1197 137Q1179 112 1153 86T1094 39T1024 3T948 -11Q888 -11 842 19T779 120H777Q717 47 656
8T537 -31Q431 -31 372 112H370Q374 27 386 -52T412 -199T436 -319T447 -400Q447 -429 441 -457T419 -506T378 -541T316 -555Q277 -555 250 -540T205 -496T180 -429T172 -341L173 1024H428V466Q428 397 437 341T464 245T510 183T576 161Q614 161 662 178T749 237V1024H1005Z"
/>
<glyph unicode="&#xb6;" glyph-name="paragraph" horiz-adv-x="1174" d="M994 1434V-522H762L765 1292L573 1290Q573 1153 573 1003T572 698T571 383T570 69T570 -236T569 -522H339L344 821Q294 830 248 850T164 906T105 995T83 1125Q83 1204 109 1262T180 1358T280
1415T395 1434H994Z" />
<glyph unicode="&#xb7;" glyph-name="middot" horiz-adv-x="463" d="M380 699Q380 666 370 637T341 587T295 553T235 540Q201 540 173 552T125 586T94 637T83 699Q83 732 95 761T127 813T175 847T232 860Q264 860 291 848T338 813T369 762T380 699Z" />
<glyph unicode="&#xb8;" glyph-name="cedilla" horiz-adv-x="665" d="M424 -109Q455 -110 482 -118T530 -144T561 -188T573 -252Q573 -300 550 -337T488 -404T400 -454T299 -491T197 -515T108 -530L92 -424Q108 -421 132 -416T184 -404T239 -386T289 -363T324
-332T338 -294Q338 -267 321 -256T281 -245Q258 -245 236 -253T199 -272L123 -240L186 20H342L282 -141H284Q297 -134 315 -128T352 -118T390 -112T424 -109Z" />
<glyph unicode="&#xb9;" glyph-name="onesuperior" horiz-adv-x="569" d="M83 1191L42 1271L342 1467H413V809Q413 777 412 748T409 704L497 707V617H132V694Q151 695 166 698T192 711T208 741T214 796V1267L83 1191Z" />
<glyph unicode="&#xba;" glyph-name="ordmasculine" horiz-adv-x="775" d="M388 1355Q337 1353 309 1297T281 1126Q281 998 308 930T396 861Q445 863 472 919T499 1087Q499 1149 493 1199T474 1283T440 1336T388 1355ZM391 1467Q466 1467 525 1441T626 1367T690
1254T712 1109Q712 1029 690 962T625 847T522 773T386 746Q312 746 252 772T150 844T85 953T62 1092Q62 1171 85 1240T150 1359T254 1438T391 1467Z" />
<glyph unicode="&#xbb;" glyph-name="guillemotright" horiz-adv-x="1011" d="M970 583V535L423 -34L326 65L713 562V564L333 1040L429 1134L970 583ZM520 578V531L171 122L75 201L280 546V549L78 895L173 975L520 578Z" />
<glyph unicode="&#xbc;" glyph-name="onequarter" horiz-adv-x="1621" d="M1317 1357L404 -33L271 66L1178 1467L1317 1357ZM118 1191L77 1271L377 1467H448V809Q448 777 447 748T444 704L532 707V617H167V694Q186 695 201 698T227 711T243 741T249 796V1267L118
1191ZM1414 197V184Q1414 152 1413 123T1410 79L1498 82V-8H1133V69Q1152 70 1168 73T1194 86T1211 116T1217 171V198L907 200V320L1343 842H1414V311H1535V196L1414 197ZM1043 317L1221 314L1230 558H1228L1043 317Z" />
<glyph unicode="&#xbd;" glyph-name="onehalf" horiz-adv-x="1705" d="M1317 1357L404 -33L271 66L1178 1467L1317 1357ZM118 1191L77 1271L377 1467H448V809Q448 777 447 748T444 704L532 707V617H167V694Q186 695 201 698T227 711T243 741T249 796V1267L118
1191ZM1194 688Q1211 674 1216 655T1222 624Q1222 610 1217 593T1199 562T1166 537T1118 527Q1070 529 1046 560T1022 637Q1022 668 1040 703T1093 769T1180 820T1301 840Q1353 840 1404 828T1495 790T1559 723T1584 621Q1584 567 1557 523T1485 436T1385 352T1272
258Q1257 245 1247 234T1230 212T1216 190T1202 164L1454 159Q1481 158 1497 171T1514 235H1611L1600 -9H1029Q1030 62 1047 116T1092 215T1156 297T1234 371Q1273 406 1298 439T1337 503T1356 559T1361 605Q1361 668 1335 694T1264 721Q1244 721 1223 711T1194
688Z" />
<glyph unicode="&#xbe;" glyph-name="threequarters" horiz-adv-x="1755" d="M1451 1357L538 -33L405 66L1312 1467L1451 1357ZM90 797Q90 820 97 841T119 879T153 904T197 914Q224 914 242 905T271 881T286 848T291 812Q291 806 290 797T285 778T276 757T262
740Q269 729 281 723T306 714T331 709T352 708Q412 708 446 746T480 846Q480 911 439 952T317 994Q301 994 281 993T248 991V1102Q266 1101 284 1100T319 1099Q358 1099 384 1112T425 1145T446 1191T453 1240Q453 1295 426 1325T347 1356Q320 1356 302 1348T275
1332Q292 1318 297 1299T303 1268Q303 1254 298 1237T281 1206T250 1181T203 1171Q155 1173 129 1201T103 1275Q103 1304 119 1338T170 1400T256 1448T380 1467Q439 1467 489 1454T577 1414T635 1347T656 1252Q656 1223 644 1194T611 1140T562 1097T502 1071V1069Q604
1049 649 993T695 852Q695 798 674 752T610 671T506 618T361 598Q298 598 248 615T162 659T109 723T90 797ZM1552 197V184Q1552 152 1551 123T1548 79L1636 82V-8H1271V69Q1290 70 1306 73T1332 86T1349 116T1355 171V198L1045 200V320L1481 842H1552V311H1673V196L1552
197ZM1181 317L1359 314L1368 558H1366L1181 317Z" />
<glyph unicode="&#xbf;" glyph-name="questiondown" horiz-adv-x="1010" d="M364 898Q364 931 376 960T410 1010T458 1044T514 1057Q544 1057 570 1045T617 1011T649 960T661 898Q661 865 649 836T617 784T569 750T512 737Q480 737 453 749T406 784T375 835T364
898ZM381 -76Q381 -124 389 -165T417 -236T470 -283T556 -300Q581 -300 605 -294T649 -279T686 -258T712 -234Q691 -213 683 -183T674 -132Q674 -112 681 -88T705 -43T746 -8T807 7Q842 7 868 -4T911 -34T936 -81T944 -139Q944 -194 912 -248T822 -345T687 -416T517
-443Q396 -443 313 -415T178 -341T105 -237T82 -117Q82 -45 113 16T192 129T295 226T397 310T476 383T508 451Q508 477 489 494T427 511Q413 511 398 510T364 503L332 608Q358 622 385 630T439 644T490 651T534 653Q567 653 599 646T656 621T696 577T712 511Q712
486 706 463T681 412T630 348T545 260Q509 224 479 189T428 115T394 29T381 -76Z" />
<glyph unicode="&#xc0;" glyph-name="Agrave" horiz-adv-x="1368" d="M844 428L399 420L366 324Q361 310 354 289T337 245T318 199T301 158L447 164V0H8V141Q51 141 80 160T132 212T171 286T205 375L605 1470H747L1184 354Q1190 339 1198 314T1216 261T1232 204T1242
152L1360 158V0H808V135Q863 135 885 156T907 215Q907 236 901 261T885 316L844 428ZM451 573H792L699 830Q672 905 651 978T620 1109H618Q610 1074 593 1005T543 839L451 573ZM409 1745Q374 1766 350 1799T326 1870Q326 1892 335 1911T359 1943T392 1965T430 1973Q461
1973 491 1959T546 1919L781 1677L708 1576L409 1745Z" />
<glyph unicode="&#xc1;" glyph-name="Aacute" horiz-adv-x="1368" d="M844 428L399 420L366 324Q361 310 354 289T337 245T318 199T301 158L447 164V0H8V141Q51 141 80 160T132 212T171 286T205 375L605 1470H747L1184 354Q1190 339 1198 314T1216 261T1232 204T1242
152L1360 158V0H808V135Q863 135 885 156T907 215Q907 236 901 261T885 316L844 428ZM451 573H792L699 830Q672 905 651 978T620 1109H618Q610 1074 593 1005T543 839L451 573ZM658 1576L585 1677L820 1919Q844 1944 874 1958T935 1973Q954 1973 972 1966T1006
1944T1030 1911T1039 1869Q1039 1831 1016 1799T957 1745L658 1576Z" />
<glyph unicode="&#xc2;" glyph-name="Acircumflex" horiz-adv-x="1368" d="M844 428L399 420L366 324Q361 310 354 289T337 245T318 199T301 158L447 164V0H8V141Q51 141 80 160T132 212T171 286T205 375L605 1470H747L1184 354Q1190 339 1198 314T1216 261T1232
204T1242 152L1360 158V0H808V135Q863 135 885 156T907 215Q907 236 901 261T885 316L844 428ZM451 573H792L699 830Q672 905 651 978T620 1109H618Q610 1074 593 1005T543 839L451 573ZM663 1988H703L1103 1681L1039 1586L674 1764L300 1589L245 1681L663 1988Z"
/>
<glyph unicode="&#xc3;" glyph-name="Atilde" horiz-adv-x="1368" d="M844 428L399 420L366 324Q361 310 354 289T337 245T318 199T301 158L447 164V0H8V141Q51 141 80 160T132 212T171 286T205 375L605 1470H747L1184 354Q1190 339 1198 314T1216 261T1232 204T1242
152L1360 158V0H808V135Q863 135 885 156T907 215Q907 236 901 261T885 316L844 428ZM451 573H792L699 830Q672 905 651 978T620 1109H618Q610 1074 593 1005T543 839L451 573ZM535 1732Q496 1732 450 1710T362 1627L248 1702Q271 1759 303 1800T373 1868T450 1908T527
1921Q578 1921 616 1905T688 1871T755 1836T827 1820Q848 1820 871 1830T916 1857T959 1899T994 1953L1110 1889Q1083 1809 1049 1759T978 1681T905 1642T837 1631Q789 1631 752 1647T681 1681T612 1716T535 1732Z" />
<glyph unicode="&#xc4;" glyph-name="Adieresis" horiz-adv-x="1368" d="M844 428L399 420L366 324Q361 310 354 289T337 245T318 199T301 158L447 164V0H8V141Q51 141 80 160T132 212T171 286T205 375L605 1470H747L1184 354Q1190 339 1198 314T1216 261T1232
204T1242 152L1360 158V0H808V135Q863 135 885 156T907 215Q907 236 901 261T885 316L844 428ZM451 573H792L699 830Q672 905 651 978T620 1109H618Q610 1074 593 1005T543 839L451 573ZM635 1786Q635 1754 624 1726T594 1677T550 1644T498 1632Q471 1632 446 1644T403
1677T373 1726T362 1786Q362 1818 373 1846T404 1896T448 1930T500 1943Q528 1943 553 1931T596 1897T624 1847T635 1786ZM992 1786Q992 1754 981 1726T951 1677T907 1644T855 1632Q828 1632 803 1644T760 1677T730 1726T719 1786Q719 1818 730 1846T761 1896T805
1930T857 1943Q885 1943 910 1931T953 1897T981 1847T992 1786Z" />
<glyph unicode="&#xc5;" glyph-name="Aring" horiz-adv-x="1368" d="M844 428L399 420L366 324Q361 310 354 289T337 245T318 199T301 158L447 164V0H8V141Q51 141 80 160T132 212T171 286T205 375L605 1470H747L1184 354Q1190 339 1198 314T1216 261T1232 204T1242
152L1360 158V0H808V135Q863 135 885 156T907 215Q907 236 901 261T885 316L844 428ZM451 573H792L699 830Q672 905 651 978T620 1109H618Q610 1074 593 1005T543 839L451 573ZM656 1952Q619 1949 597 1913T574 1813Q574 1733 601 1691T671 1648Q707 1648 731 1678T755
1775Q755 1862 731 1907T665 1952H656ZM663 2061Q710 2061 759 2046T847 1998T912 1918T938 1803Q938 1741 914 1692T850 1608T763 1556T666 1538Q616 1538 567 1553T479 1601T416 1682T392 1799Q392 1857 416 1905T479 1988T566 2042T663 2061Z" />
<glyph unicode="&#xc6;" glyph-name="AE" horiz-adv-x="1915" d="M739 0V135Q773 137 800 141T846 163T875 216T885 313V424L484 414L412 309Q379 261 347 220T282 153V151L446 158V0H-12V135Q24 135 57 155T120 206T178 275T232 350L892 1279Q892 1280 892 1280T893
1282L739 1276V1434H1764L1776 1037H1641Q1641 1117 1619 1168T1563 1249T1486 1290T1402 1301L1318 1299Q1286 1298 1261 1293T1218 1269T1191 1216T1181 1121V814H1422L1413 991H1571V493H1436Q1436 553 1423 588T1386 642T1330 667T1251 673L1181 672V336Q1181
308 1181 282T1179 231T1177 188T1173 155L1448 156Q1493 156 1538 171T1618 220T1675 311T1697 451H1832L1820 0H739ZM583 565H885V742Q885 808 887 879T897 1025Q859 967 822 911T749 803L583 565Z" />
<glyph unicode="&#xc7;" glyph-name="Ccedilla" horiz-adv-x="1410" d="M857 -106Q888 -107 916 -117T966 -145T999 -192T1012 -257Q1012 -305 988 -344T925 -416T836 -474T734 -517T631 -546T541 -563L525 -451Q541 -448 565 -442T617 -425T672 -402T721 -373T756
-339T770 -299Q770 -271 755 -260T717 -249Q695 -249 671 -258T632 -279L547 -247L602 -14Q480 14 382 79T215 238T109 448T72 696Q72 789 92 882T151 1061T251 1221T390 1350T569 1436T788 1467Q828 1467 872 1461T963 1441T1054 1410T1140 1366H1142L1135 1453H1293V974H1159Q1131
1145 1046 1231T815 1318Q708 1318 629 1269T497 1139T420 954T394 738Q394 605 422 494T505 303T640 178T824 133Q888 133 953 150T1079 199T1194 279T1292 385L1390 295Q1315 191 1233 127T1070 28T913 -20T774 -33Q769 -33 765 -33T755 -32L715 -138H717Q730
-131 748 -125T785 -115T823 -109T857 -106Z" />
<glyph unicode="&#xc8;" glyph-name="Egrave" horiz-adv-x="1278" d="M544 672V336Q544 308 544 282T542 231T540 188T536 155L811 156Q856 156 901 171T981 220T1038 311T1060 451H1195L1183 0H102V135Q136 137 163 142T209 164T238 216T248 313V1098Q248 1126
248 1153T250 1204T252 1249T256 1282L102 1276V1434H1127L1139 1037H1004Q1004 1120 981 1172T921 1253T841 1292T755 1301L681 1299Q649 1298 624 1293T581 1269T554 1216T544 1121V814H785L776 991H934V493H799Q799 557 783 594T740 649T677 670T598 673L544
672ZM434 1745Q399 1766 375 1799T351 1870Q351 1892 360 1911T384 1943T417 1965T455 1973Q486 1973 516 1959T571 1919L806 1677L733 1576L434 1745Z" />
<glyph unicode="&#xc9;" glyph-name="Eacute" horiz-adv-x="1278" d="M544 672V336Q544 308 544 282T542 231T540 188T536 155L811 156Q856 156 901 171T981 220T1038 311T1060 451H1195L1183 0H102V135Q136 137 163 142T209 164T238 216T248 313V1098Q248 1126
248 1153T250 1204T252 1249T256 1282L102 1276V1434H1127L1139 1037H1004Q1004 1120 981 1172T921 1253T841 1292T755 1301L681 1299Q649 1298 624 1293T581 1269T554 1216T544 1121V814H785L776 991H934V493H799Q799 557 783 594T740 649T677 670T598 673L544
672ZM554 1576L481 1677L716 1919Q740 1944 770 1958T831 1973Q850 1973 868 1966T902 1944T926 1911T935 1869Q935 1831 912 1799T853 1745L554 1576Z" />
<glyph unicode="&#xca;" glyph-name="Ecircumflex" horiz-adv-x="1278" d="M544 672V336Q544 308 544 282T542 231T540 188T536 155L811 156Q856 156 901 171T981 220T1038 311T1060 451H1195L1183 0H102V135Q136 137 163 142T209 164T238 216T248 313V1098Q248
1126 248 1153T250 1204T252 1249T256 1282L102 1276V1434H1127L1139 1037H1004Q1004 1120 981 1172T921 1253T841 1292T755 1301L681 1299Q649 1298 624 1293T581 1269T554 1216T544 1121V814H785L776 991H934V493H799Q799 557 783 594T740 649T677 670T598 673L544
672ZM646 1988H686L1086 1681L1022 1586L657 1764L283 1589L228 1681L646 1988Z" />
<glyph unicode="&#xcb;" glyph-name="Edieresis" horiz-adv-x="1278" d="M544 672V336Q544 308 544 282T542 231T540 188T536 155L811 156Q856 156 901 171T981 220T1038 311T1060 451H1195L1183 0H102V135Q136 137 163 142T209 164T238 216T248 313V1098Q248
1126 248 1153T250 1204T252 1249T256 1282L102 1276V1434H1127L1139 1037H1004Q1004 1120 981 1172T921 1253T841 1292T755 1301L681 1299Q649 1298 624 1293T581 1269T554 1216T544 1121V814H785L776 991H934V493H799Q799 557 783 594T740 649T677 670T598 673L544
672ZM604 1786Q604 1754 593 1726T563 1677T519 1644T467 1632Q440 1632 415 1644T372 1677T342 1726T331 1786Q331 1818 342 1846T373 1896T417 1930T469 1943Q497 1943 522 1931T565 1897T593 1847T604 1786ZM961 1786Q961 1754 950 1726T920 1677T876 1644T824
1632Q797 1632 772 1644T729 1677T699 1726T688 1786Q688 1818 699 1846T730 1896T774 1930T826 1943Q854 1943 879 1931T922 1897T950 1847T961 1786Z" />
<glyph unicode="&#xcc;" glyph-name="Igrave" horiz-adv-x="792" d="M544 336Q544 308 544 281T542 230T540 185T536 152L690 158V0H102V135Q136 137 163 141T209 163T238 216T248 313V1098Q248 1126 248 1153T250 1204T252 1249T256 1282L102 1276V1434H690V1299Q655
1297 628 1292T583 1270T554 1218T544 1121V336ZM412 1745Q377 1766 353 1799T329 1870Q329 1892 338 1911T362 1943T395 1965T433 1973Q464 1973 494 1959T549 1919L784 1677L711 1576L412 1745Z" />
<glyph unicode="&#xcd;" glyph-name="Iacute" horiz-adv-x="791" d="M544 336Q544 308 544 281T542 230T540 185T536 152L690 158V0H102V135Q136 137 163 141T209 163T238 216T248 313V1098Q248 1126 248 1153T250 1204T252 1249T256 1282L102 1276V1434H690V1299Q655
1297 628 1292T583 1270T554 1218T544 1121V336ZM323 1576L250 1677L485 1919Q509 1944 539 1958T600 1973Q619 1973 637 1966T671 1944T695 1911T704 1869Q704 1831 681 1799T622 1745L323 1576Z" />
<glyph unicode="&#xce;" glyph-name="Icircumflex" horiz-adv-x="792" d="M389 1988H429L749 1681L685 1586L400 1764L106 1589L51 1681L389 1988ZM544 336Q544 308 544 281T542 230T540 185T536 152L690 158V0H102V135Q136 137 163 141T209 163T238 216T248 313V1098Q248
1126 248 1153T250 1204T252 1249T256 1282L102 1276V1434H690V1299Q655 1297 628 1292T583 1270T554 1218T544 1121V336Z" />
<glyph unicode="&#xcf;" glyph-name="Idieresis" horiz-adv-x="792" d="M544 336Q544 308 544 281T542 230T540 185T536 152L690 158V0H102V135Q136 137 163 141T209 163T238 216T248 313V1098Q248 1126 248 1153T250 1204T252 1249T256 1282L102 1276V1434H690V1299Q655
1297 628 1292T583 1270T554 1218T544 1121V336ZM367 1786Q367 1754 356 1726T326 1677T282 1644T230 1632Q203 1632 178 1644T135 1677T105 1726T94 1786Q94 1818 105 1846T136 1896T180 1930T232 1943Q260 1943 285 1931T328 1897T356 1847T367 1786ZM724 1786Q724
1754 713 1726T683 1677T639 1644T587 1632Q560 1632 535 1644T492 1677T462 1726T451 1786Q451 1818 462 1846T493 1896T537 1930T589 1943Q617 1943 642 1931T685 1897T713 1847T724 1786Z" />
<glyph unicode="&#xd0;" glyph-name="Eth" horiz-adv-x="1555" d="M61 819H248V1099Q248 1127 248 1154T250 1205T252 1250T256 1283L102 1277V1435L699 1437Q834 1437 944 1409T1142 1330T1293 1213T1399 1067T1461 903T1482 732Q1482 649 1463 563T1404 395T1300
242T1149 117T947 32T689 1H102V136Q136 138 163 142T209 164T238 217T248 314V620L61 618V819ZM695 1300H678Q644 1300 619 1294T578 1269T553 1216T544 1126V819H762V627L544 624V337Q544 309 544 282T542 231T540 186T536 153Q543 154 552 154T572 154Q591 154
613 154T656 153T698 152T732 151Q844 151 924 196T1057 317T1134 490T1159 689Q1159 846 1127 960T1034 1148T887 1260T695 1300Z" />
<glyph unicode="&#xd1;" glyph-name="Ntilde" horiz-adv-x="1583" d="M1365 -20H1191L536 817Q484 884 424 970H422L425 336Q425 308 425 281T423 230T421 185T417 152L571 158V0H104V135Q138 137 165 141T211 163T240 216T250 313L245 1098Q245 1126 245 1153T247
1204T249 1249T253 1282L99 1276V1434H420L1046 644Q1098 578 1131 531T1189 448H1191V1098Q1191 1126 1191 1153T1193 1204T1195 1249T1199 1282L1045 1276V1434H1511V1299Q1476 1297 1449 1292T1404 1270T1375 1218T1365 1121V-20ZM659 1732Q620 1732 574 1710T486
1627L372 1702Q395 1759 427 1800T497 1868T574 1908T651 1921Q702 1921 740 1905T812 1871T879 1836T951 1820Q972 1820 995 1830T1040 1857T1083 1899T1118 1953L1234 1889Q1207 1809 1173 1759T1102 1681T1029 1642T961 1631Q913 1631 876 1647T805 1681T736
1716T659 1732Z" />
<glyph unicode="&#xd2;" glyph-name="Ograve" horiz-adv-x="1574" d="M394 741Q394 676 403 605T432 465T484 332T561 222T668 146T806 117Q877 117 932 141T1028 208T1099 306T1146 424T1172 553T1180 682Q1180 820 1156 936T1082 1137T956 1269T776 1317Q703
1317 647 1293T548 1225T476 1126T429 1005T402 874T394 741ZM72 717Q72 803 91 892T150 1064T249 1220T389 1349T569 1435T791 1467Q915 1467 1016 1435T1197 1348T1333 1220T1429 1063T1485 891T1503 717Q1503 632 1484 544T1425 372T1326 215T1186 86T1006 -1T785
-33Q655 -33 552 -2T370 82T234 208T142 364T89 538T72 717ZM549 1745Q514 1766 490 1799T466 1870Q466 1892 475 1911T499 1943T532 1965T570 1973Q601 1973 631 1959T686 1919L921 1677L848 1576L549 1745Z" />
<glyph unicode="&#xd3;" glyph-name="Oacute" horiz-adv-x="1574" d="M394 741Q394 676 403 605T432 465T484 332T561 222T668 146T806 117Q877 117 932 141T1028 208T1099 306T1146 424T1172 553T1180 682Q1180 820 1156 936T1082 1137T956 1269T776 1317Q703
1317 647 1293T548 1225T476 1126T429 1005T402 874T394 741ZM72 717Q72 803 91 892T150 1064T249 1220T389 1349T569 1435T791 1467Q915 1467 1016 1435T1197 1348T1333 1220T1429 1063T1485 891T1503 717Q1503 632 1484 544T1425 372T1326 215T1186 86T1006 -1T785
-33Q655 -33 552 -2T370 82T234 208T142 364T89 538T72 717ZM740 1576L667 1677L902 1919Q926 1944 956 1958T1017 1973Q1036 1973 1054 1966T1088 1944T1112 1911T1121 1869Q1121 1831 1098 1799T1039 1745L740 1576Z" />
<glyph unicode="&#xd4;" glyph-name="Ocircumflex" horiz-adv-x="1574" d="M394 741Q394 676 403 605T432 465T484 332T561 222T668 146T806 117Q877 117 932 141T1028 208T1099 306T1146 424T1172 553T1180 682Q1180 820 1156 936T1082 1137T956 1269T776 1317Q703
1317 647 1293T548 1225T476 1126T429 1005T402 874T394 741ZM72 717Q72 803 91 892T150 1064T249 1220T389 1349T569 1435T791 1467Q915 1467 1016 1435T1197 1348T1333 1220T1429 1063T1485 891T1503 717Q1503 632 1484 544T1425 372T1326 215T1186 86T1006 -1T785
-33Q655 -33 552 -2T370 82T234 208T142 364T89 538T72 717ZM785 1988H825L1225 1681L1161 1586L796 1764L422 1589L367 1681L785 1988Z" />
<glyph unicode="&#xd5;" glyph-name="Otilde" horiz-adv-x="1574" d="M394 741Q394 676 403 605T432 465T484 332T561 222T668 146T806 117Q877 117 932 141T1028 208T1099 306T1146 424T1172 553T1180 682Q1180 820 1156 936T1082 1137T956 1269T776 1317Q703
1317 647 1293T548 1225T476 1126T429 1005T402 874T394 741ZM72 717Q72 803 91 892T150 1064T249 1220T389 1349T569 1435T791 1467Q915 1467 1016 1435T1197 1348T1333 1220T1429 1063T1485 891T1503 717Q1503 632 1484 544T1425 372T1326 215T1186 86T1006 -1T785
-33Q655 -33 552 -2T370 82T234 208T142 364T89 538T72 717ZM640 1732Q601 1732 555 1710T467 1627L353 1702Q376 1759 408 1800T478 1868T555 1908T632 1921Q683 1921 721 1905T793 1871T860 1836T932 1820Q953 1820 976 1830T1021 1857T1064 1899T1099 1953L1215
1889Q1188 1809 1154 1759T1083 1681T1010 1642T942 1631Q894 1631 857 1647T786 1681T717 1716T640 1732Z" />
<glyph unicode="&#xd6;" glyph-name="Odieresis" horiz-adv-x="1574" d="M394 741Q394 676 403 605T432 465T484 332T561 222T668 146T806 117Q877 117 932 141T1028 208T1099 306T1146 424T1172 553T1180 682Q1180 820 1156 936T1082 1137T956 1269T776 1317Q703
1317 647 1293T548 1225T476 1126T429 1005T402 874T394 741ZM72 717Q72 803 91 892T150 1064T249 1220T389 1349T569 1435T791 1467Q915 1467 1016 1435T1197 1348T1333 1220T1429 1063T1485 891T1503 717Q1503 632 1484 544T1425 372T1326 215T1186 86T1006 -1T785
-33Q655 -33 552 -2T370 82T234 208T142 364T89 538T72 717ZM757 1786Q757 1754 746 1726T716 1677T672 1644T620 1632Q593 1632 568 1644T525 1677T495 1726T484 1786Q484 1818 495 1846T526 1896T570 1930T622 1943Q650 1943 675 1931T718 1897T746 1847T757
1786ZM1114 1786Q1114 1754 1103 1726T1073 1677T1029 1644T977 1632Q950 1632 925 1644T882 1677T852 1726T841 1786Q841 1818 852 1846T883 1896T927 1930T979 1943Q1007 1943 1032 1931T1075 1897T1103 1847T1114 1786Z" />
<glyph unicode="&#xd7;" glyph-name="multiply" horiz-adv-x="1147" d="M92 302L420 623L95 945L256 1097L578 772L913 1107L1051 958L723 629L1056 287L899 134L566 476L238 151L92 302Z" />
<glyph unicode="&#xd8;" glyph-name="Oslash" horiz-adv-x="1573" d="M72 717Q72 803 91 892T150 1064T249 1220T389 1349T569 1435T791 1467Q881 1467 957 1451T1099 1404L1220 1611L1382 1510L1258 1300Q1321 1243 1367 1173T1444 1028T1488 873T1503 717Q1503
632 1484 544T1425 372T1326 215T1186 86T1006 -1T785 -33Q704 -33 634 -21T503 14L376 -202L224 -100L342 102Q270 157 219 228T136 379T88 545T72 717ZM394 741Q394 694 398 643T413 540T440 437T480 340L1001 1236Q956 1275 901 1296T777 1317Q704 1317 648
1293T549 1226T477 1126T429 1005T402 874T394 741ZM1180 682Q1180 793 1165 888T1118 1062L602 183Q645 150 694 134T806 117Q877 117 932 141T1028 208T1099 306T1146 424T1172 553T1180 682Z" />
<glyph unicode="&#xd9;" glyph-name="Ugrave" horiz-adv-x="1557" d="M1361 608Q1361 431 1318 309T1198 111T1017 1T789 -33Q673 -33 585 -11T431 53T321 153T249 281T211 433T199 602V1098Q199 1126 199 1153T201 1204T203 1249T207 1282L53 1276V1434H642V1299Q607
1297 580 1292T535 1270T506 1218T496 1121V558Q496 424 525 340T603 207T712 141T838 123Q918 123 981 150T1089 231T1156 368T1179 561V1098Q1179 1126 1179 1153T1181 1204T1183 1249T1187 1282L1033 1276V1434H1507V1299Q1472 1297 1445 1292T1400 1270T1371
1218T1361 1121V608ZM647 1745Q612 1766 588 1799T564 1870Q564 1892 573 1911T597 1943T630 1965T668 1973Q699 1973 729 1959T784 1919L1019 1677L946 1576L647 1745Z" />
<glyph unicode="&#xda;" glyph-name="Uacute" horiz-adv-x="1557" d="M1361 608Q1361 431 1318 309T1198 111T1017 1T789 -33Q673 -33 585 -11T431 53T321 153T249 281T211 433T199 602V1098Q199 1126 199 1153T201 1204T203 1249T207 1282L53 1276V1434H642V1299Q607
1297 580 1292T535 1270T506 1218T496 1121V558Q496 424 525 340T603 207T712 141T838 123Q918 123 981 150T1089 231T1156 368T1179 561V1098Q1179 1126 1179 1153T1181 1204T1183 1249T1187 1282L1033 1276V1434H1507V1299Q1472 1297 1445 1292T1400 1270T1371
1218T1361 1121V608ZM753 1576L680 1677L915 1919Q939 1944 969 1958T1030 1973Q1049 1973 1067 1966T1101 1944T1125 1911T1134 1869Q1134 1831 1111 1799T1052 1745L753 1576Z" />
<glyph unicode="&#xdb;" glyph-name="Ucircumflex" horiz-adv-x="1557" d="M1361 608Q1361 431 1318 309T1198 111T1017 1T789 -33Q673 -33 585 -11T431 53T321 153T249 281T211 433T199 602V1098Q199 1126 199 1153T201 1204T203 1249T207 1282L53 1276V1434H642V1299Q607
1297 580 1292T535 1270T506 1218T496 1121V558Q496 424 525 340T603 207T712 141T838 123Q918 123 981 150T1089 231T1156 368T1179 561V1098Q1179 1126 1179 1153T1181 1204T1183 1249T1187 1282L1033 1276V1434H1507V1299Q1472 1297 1445 1292T1400 1270T1371
1218T1361 1121V608ZM824 1988H864L1264 1681L1200 1586L835 1764L461 1589L406 1681L824 1988Z" />
<glyph unicode="&#xdc;" glyph-name="Udieresis" horiz-adv-x="1557" d="M1361 608Q1361 431 1318 309T1198 111T1017 1T789 -33Q673 -33 585 -11T431 53T321 153T249 281T211 433T199 602V1098Q199 1126 199 1153T201 1204T203 1249T207 1282L53 1276V1434H642V1299Q607
1297 580 1292T535 1270T506 1218T496 1121V558Q496 424 525 340T603 207T712 141T838 123Q918 123 981 150T1089 231T1156 368T1179 561V1098Q1179 1126 1179 1153T1181 1204T1183 1249T1187 1282L1033 1276V1434H1507V1299Q1472 1297 1445 1292T1400 1270T1371
1218T1361 1121V608ZM800 1786Q800 1754 789 1726T759 1677T715 1644T663 1632Q636 1632 611 1644T568 1677T538 1726T527 1786Q527 1818 538 1846T569 1896T613 1930T665 1943Q693 1943 718 1931T761 1897T789 1847T800 1786ZM1157 1786Q1157 1754 1146 1726T1116
1677T1072 1644T1020 1632Q993 1632 968 1644T925 1677T895 1726T884 1786Q884 1818 895 1846T926 1896T970 1930T1022 1943Q1050 1943 1075 1931T1118 1897T1146 1847T1157 1786Z" />
<glyph unicode="&#xdd;" glyph-name="Yacute" horiz-adv-x="1365" d="M858 568V336Q858 308 858 281T856 230T854 185T850 152L1014 158V0H416V135Q450 136 477 141T523 164T552 216T562 313V492L184 1087Q169 1111 155 1138T130 1191T113 1241T106 1282L7 1276V1434H610V1299Q604
1299 599 1299T587 1300Q530 1300 497 1280T464 1219Q465 1202 470 1183T489 1141L646 884Q653 872 667 848T696 796T726 738T749 687H752Q762 710 786 759T848 887L954 1096Q962 1112 975 1137T1003 1189T1033 1241T1062 1282V1284L905 1276V1434H1357V1299Q1321
1293 1292 1279T1235 1240T1182 1175T1125 1080L858 568ZM665 1576L592 1677L827 1919Q851 1944 881 1958T942 1973Q961 1973 979 1966T1013 1944T1037 1911T1046 1869Q1046 1831 1023 1799T964 1745L665 1576Z" />
<glyph unicode="&#xde;" glyph-name="Thorn" horiz-adv-x="1296" d="M677 311Q635 309 605 309T544 309Q543 260 541 218T536 152Q597 155 690 158V0H102V135Q136 137 163 142T209 164T238 216T248 313V1098Q248 1126 248 1153T250 1204T252 1249T256 1282L102
1276V1434H690V1299Q659 1297 634 1293T591 1276T562 1238T546 1168L669 1170Q804 1171 914 1150T1104 1077T1224 941T1263 735Q1261 653 1224 578T1113 445T931 351T677 311ZM666 1025Q628 1025 599 1025T544 1024V461Q562 459 581 458T620 457Q789 457 868 531T947
754Q947 820 932 865T893 941T839 988T777 1013T716 1023T666 1025Z" />
<glyph unicode="&#xdf;" glyph-name="germandbls" horiz-adv-x="1579" d="M1277 909Q1236 912 1196 912Q1155 912 1118 907T1053 890T1007 857T990 804Q990 772 1003 751T1042 713T1107 681T1200 648Q1278 621 1342 588T1453 511T1525 411T1551 283Q1551 203 1521
144T1441 45T1326 -13T1188 -33Q1098 -33 1036 -11T925 48H923L930 -14H774L766 338H898Q902 291 921 250T975 179T1060 132T1176 115Q1198 115 1221 121T1263 141T1294 173T1307 217Q1307 246 1293 267T1251 308T1180 345T1079 387Q1015 412 956 439T852 504T779
598T752 737Q752 788 766 838T812 930T892 1003T1011 1048Q1011 1160 988 1228T928 1332T849 1380T768 1392Q720 1392 672 1376T586 1317T523 1196T499 997V333Q499 318 499 297T497 250T495 199T491 150L634 156V0H87V133Q130 133 154 146T191 183T206 240T209
315V858L61 853V1024H212Q224 1177 272 1277T394 1437T564 1521T767 1546Q803 1546 855 1541T965 1519T1079 1467T1181 1375T1255 1230T1283 1021Q1283 969 1277 909Z" />
<glyph unicode="&#xe0;" glyph-name="agrave" horiz-adv-x="1074" d="M631 471Q573 465 522 450T434 411T375 352T353 274Q354 245 364 225T389 192T425 173T468 167Q516 167 557 187T630 242L631 471ZM106 787Q106 847 139 897T231 982T369 1037T538 1057Q628
1057 698 1034T817 963T891 841T917 665Q917 613 917 574T916 498T916 421T915 329Q915 314 915 293T914 248T912 199T908 150L1040 156V0H653Q649 29 648 48T645 94H643Q573 24 497 -4T340 -33Q274 -33 222 -13T135 45T80 131T61 240Q61 305 84 357T147 450T243
521T361 571T494 602T632 616V723Q632 764 625 798T601 858T556 897T486 910Q444 908 408 893T346 851Q362 834 366 812T371 775Q371 753 363 731T338 690T295 659T233 647Q203 648 179 659T139 689T115 733T106 787ZM295 1374Q271 1397 256 1428T241 1492Q241
1512 249 1532T271 1567T305 1592T348 1602Q383 1602 416 1582T470 1527L638 1241L544 1158L295 1374Z" />
<glyph unicode="&#xe1;" glyph-name="aacute" horiz-adv-x="1074" d="M631 471Q573 465 522 450T434 411T375 352T353 274Q354 245 364 225T389 192T425 173T468 167Q516 167 557 187T630 242L631 471ZM106 787Q106 847 139 897T231 982T369 1037T538 1057Q628
1057 698 1034T817 963T891 841T917 665Q917 613 917 574T916 498T916 421T915 329Q915 314 915 293T914 248T912 199T908 150L1040 156V0H653Q649 29 648 48T645 94H643Q573 24 497 -4T340 -33Q274 -33 222 -13T135 45T80 131T61 240Q61 305 84 357T147 450T243
521T361 571T494 602T632 616V723Q632 764 625 798T601 858T556 897T486 910Q444 908 408 893T346 851Q362 834 366 812T371 775Q371 753 363 731T338 690T295 659T233 647Q203 648 179 659T139 689T115 733T106 787ZM450 1158L356 1241L524 1527Q545 1561 577
1581T645 1602Q669 1602 688 1593T722 1568T745 1532T753 1492Q753 1460 738 1429T699 1374L450 1158Z" />
<glyph unicode="&#xe2;" glyph-name="acircumflex" horiz-adv-x="1074" d="M631 471Q573 465 522 450T434 411T375 352T353 274Q354 245 364 225T389 192T425 173T468 167Q516 167 557 187T630 242L631 471ZM106 787Q106 847 139 897T231 982T369 1037T538 1057Q628
1057 698 1034T817 963T891 841T917 665Q917 613 917 574T916 498T916 421T915 329Q915 314 915 293T914 248T912 199T908 150L1040 156V0H653Q649 29 648 48T645 94H643Q573 24 497 -4T340 -33Q274 -33 222 -13T135 45T80 131T61 240Q61 305 84 357T147 450T243
521T361 571T494 602T632 616V723Q632 764 625 798T601 858T556 897T486 910Q444 908 408 893T346 851Q362 834 366 812T371 775Q371 753 363 731T338 690T295 659T233 647Q203 648 179 659T139 689T115 733T106 787ZM513 1603H534L862 1256L774 1151L513 1365H511L249
1166L163 1264L513 1603Z" />
<glyph unicode="&#xe3;" glyph-name="atilde" horiz-adv-x="1074" d="M631 471Q573 465 522 450T434 411T375 352T353 274Q354 245 364 225T389 192T425 173T468 167Q516 167 557 187T630 242L631 471ZM106 787Q106 847 139 897T231 982T369 1037T538 1057Q628
1057 698 1034T817 963T891 841T917 665Q917 613 917 574T916 498T916 421T915 329Q915 314 915 293T914 248T912 199T908 150L1040 156V0H653Q649 29 648 48T645 94H643Q573 24 497 -4T340 -33Q274 -33 222 -13T135 45T80 131T61 240Q61 305 84 357T147 450T243
521T361 571T494 602T632 616V723Q632 764 625 798T601 858T556 897T486 910Q444 908 408 893T346 851Q362 834 366 812T371 775Q371 753 363 731T338 690T295 659T233 647Q203 648 179 659T139 689T115 733T106 787ZM386 1322Q374 1322 359 1318T326 1305T292
1279T258 1239L144 1307Q160 1353 187 1392T246 1458T313 1501T383 1517Q431 1517 462 1505T519 1478T570 1451T633 1439Q669 1439 701 1466T760 1542L876 1483Q855 1419 826 1374T764 1299T697 1257T633 1243Q592 1243 560 1255T499 1282T443 1309T386 1322Z"
/>
<glyph unicode="&#xe4;" glyph-name="adieresis" horiz-adv-x="1074" d="M631 471Q573 465 522 450T434 411T375 352T353 274Q354 245 364 225T389 192T425 173T468 167Q516 167 557 187T630 242L631 471ZM106 787Q106 847 139 897T231 982T369 1037T538 1057Q628
1057 698 1034T817 963T891 841T917 665Q917 613 917 574T916 498T916 421T915 329Q915 314 915 293T914 248T912 199T908 150L1040 156V0H653Q649 29 648 48T645 94H643Q573 24 497 -4T340 -33Q274 -33 222 -13T135 45T80 131T61 240Q61 305 84 357T147 450T243
521T361 571T494 602T632 616V723Q632 764 625 798T601 858T556 897T486 910Q444 908 408 893T346 851Q362 834 366 812T371 775Q371 753 363 731T338 690T295 659T233 647Q203 648 179 659T139 689T115 733T106 787ZM466 1382Q466 1350 455 1322T426 1273T382
1240T330 1228Q302 1228 278 1240T235 1273T205 1322T194 1382Q194 1414 205 1442T235 1492T279 1525T331 1538Q360 1538 385 1526T428 1492T456 1443T466 1382ZM822 1382Q822 1350 811 1322T782 1273T738 1240T686 1228Q658 1228 634 1240T591 1273T561 1322T550
1382Q550 1414 561 1442T591 1492T635 1525T687 1538Q716 1538 741 1526T784 1492T812 1443T822 1382Z" />
<glyph unicode="&#xe5;" glyph-name="aring" horiz-adv-x="1074" d="M631 471Q573 465 522 450T434 411T375 352T353 274Q354 245 364 225T389 192T425 173T468 167Q516 167 557 187T630 242L631 471ZM106 787Q106 847 139 897T231 982T369 1037T538 1057Q628
1057 698 1034T817 963T891 841T917 665Q917 613 917 574T916 498T916 421T915 329Q915 314 915 293T914 248T912 199T908 150L1040 156V0H653Q649 29 648 48T645 94H643Q573 24 497 -4T340 -33Q274 -33 222 -13T135 45T80 131T61 240Q61 305 84 357T147 450T243
521T361 571T494 602T632 616V723Q632 764 625 798T601 858T556 897T486 910Q444 908 408 893T346 851Q362 834 366 812T371 775Q371 753 363 731T338 690T295 659T233 647Q203 648 179 659T139 689T115 733T106 787ZM523 1505Q497 1504 475 1481T453 1406Q453
1341 476 1310T536 1278Q562 1278 583 1303T604 1376Q604 1446 580 1475T523 1505ZM524 1628Q567 1628 610 1614T688 1572T745 1500T767 1397Q767 1341 746 1296T691 1219T613 1170T527 1153Q483 1153 440 1168T362 1214T305 1288T283 1389Q283 1440 303 1483T356
1559T433 1610T524 1628Z" />
<glyph unicode="&#xe6;" glyph-name="ae" horiz-adv-x="1577" d="M343 -33Q277 -33 225 -13T136 45T80 131T60 240Q60 305 83 357T148 450T244 521T362 571T495 602T633 616V727Q633 768 625 802T600 860T556 897T491 911Q449 909 410 897T345 857Q361 840 365
815T370 775Q370 753 362 731T337 690T294 659T232 647Q202 648 178 659T138 689T114 733T105 787Q105 844 136 893T224 978T356 1036T523 1057Q628 1057 699 1019T799 884H801Q829 931 861 964T932 1017T1018 1047T1124 1057Q1193 1056 1259 1030T1378 944T1463
788T1496 551L915 539Q915 455 926 384T965 261T1041 180T1164 150Q1195 150 1229 158T1300 184T1373 231T1445 304L1537 217Q1482 138 1424 89T1309 13T1195 -23T1087 -33Q1030 -33 981 -19T891 18T817 73T758 139Q711 85 659 52T554 -1T447 -26T343 -33ZM632
471Q573 465 522 450T433 411T372 352T350 274Q351 245 362 225T390 192T429 173T473 167Q521 167 564 188T640 245Q635 305 634 360T632 471ZM1090 911Q1048 911 1019 893T971 843T942 770T928 683H1225Q1223 746 1211 789T1181 860T1139 899T1090 911Z" />
<glyph unicode="&#xe7;" glyph-name="ccedilla" horiz-adv-x="1065" d="M642 -109Q673 -110 700 -118T748 -144T779 -188T791 -252Q791 -300 768 -337T706 -404T618 -454T517 -491T415 -515T326 -530L310 -424Q326 -421 350 -416T402 -404T457 -386T507 -363T542
-332T556 -294Q556 -267 539 -256T499 -245Q476 -245 454 -253T417 -272L341 -240L398 -5Q325 18 264 61T159 168T90 312T65 490Q65 605 104 708T213 889T381 1011T598 1057Q695 1057 769 1033T892 970T967 881T992 776Q992 745 983 717T955 668T909 635T848 623Q810
623 785 636T744 668T722 711T715 756Q715 774 721 799T740 845Q729 865 712 878T675 899T636 910T601 913Q549 913 506 890T432 820T383 705T365 548Q365 470 379 398T427 271T514 183T647 150Q688 150 729 161T809 193T881 243T943 307L1037 216Q981 139 922
91T803 15T684 -22T569 -32Q561 -32 555 -32T541 -31L500 -141H502Q515 -134 533 -128T570 -118T608 -112T642 -109Z" />
<glyph unicode="&#xe8;" glyph-name="egrave" horiz-adv-x="1103" d="M585 913Q540 913 505 896T443 849T401 777T377 683H754Q752 746 739 790T704 861T651 901T585 913ZM1037 551L364 539Q364 455 379 384T429 261T518 180T653 150Q684 150 722 158T799 184T879
231T954 304L1046 217Q991 138 929 89T805 13T682 -23T569 -33Q456 -33 363 5T203 114T100 285T63 510Q63 618 99 716T203 891T364 1012T575 1057Q632 1057 688 1047T796 1014T892 952T969 858T1019 726T1037 551ZM324 1374Q300 1397 285 1428T270 1492Q270 1512
278 1532T300 1567T334 1592T377 1602Q412 1602 445 1582T499 1527L667 1241L573 1158L324 1374Z" />
<glyph unicode="&#xe9;" glyph-name="eacute" horiz-adv-x="1103" d="M585 913Q540 913 505 896T443 849T401 777T377 683H754Q752 746 739 790T704 861T651 901T585 913ZM1037 551L364 539Q364 455 379 384T429 261T518 180T653 150Q684 150 722 158T799 184T879
231T954 304L1046 217Q991 138 929 89T805 13T682 -23T569 -33Q456 -33 363 5T203 114T100 285T63 510Q63 618 99 716T203 891T364 1012T575 1057Q632 1057 688 1047T796 1014T892 952T969 858T1019 726T1037 551ZM516 1158L422 1241L590 1527Q611 1561 643 1581T711
1602Q735 1602 754 1593T788 1568T811 1532T819 1492Q819 1460 804 1429T765 1374L516 1158Z" />
<glyph unicode="&#xea;" glyph-name="ecircumflex" horiz-adv-x="1103" d="M585 913Q540 913 505 896T443 849T401 777T377 683H754Q752 746 739 790T704 861T651 901T585 913ZM1037 551L364 539Q364 455 379 384T429 261T518 180T653 150Q684 150 722 158T799
184T879 231T954 304L1046 217Q991 138 929 89T805 13T682 -23T569 -33Q456 -33 363 5T203 114T100 285T63 510Q63 618 99 716T203 891T364 1012T575 1057Q632 1057 688 1047T796 1014T892 952T969 858T1019 726T1037 551ZM579 1603H600L928 1256L840 1151L579
1365H577L315 1166L229 1264L579 1603Z" />
<glyph unicode="&#xeb;" glyph-name="edieresis" horiz-adv-x="1103" d="M585 913Q540 913 505 896T443 849T401 777T377 683H754Q752 746 739 790T704 861T651 901T585 913ZM1037 551L364 539Q364 455 379 384T429 261T518 180T653 150Q684 150 722 158T799 184T879
231T954 304L1046 217Q991 138 929 89T805 13T682 -23T569 -33Q456 -33 363 5T203 114T100 285T63 510Q63 618 99 716T203 891T364 1012T575 1057Q632 1057 688 1047T796 1014T892 952T969 858T1019 726T1037 551ZM542 1382Q542 1350 531 1322T502 1273T458 1240T406
1228Q378 1228 354 1240T311 1273T281 1322T270 1382Q270 1414 281 1442T311 1492T355 1525T407 1538Q436 1538 461 1526T504 1492T532 1443T542 1382ZM898 1382Q898 1350 887 1322T858 1273T814 1240T762 1228Q734 1228 710 1240T667 1273T637 1322T626 1382Q626
1414 637 1442T667 1492T711 1525T763 1538Q792 1538 817 1526T860 1492T888 1443T898 1382Z" />
<glyph unicode="&#xec;" glyph-name="igrave" horiz-adv-x="670" d="M495 329Q495 314 495 293T493 248T491 199T487 150L620 156V0H83V133Q126 133 150 146T187 183T202 240T205 315V655Q205 692 206 740T213 834L69 828V983Q140 983 194 989T287 1004T349 1023T384
1044H495V329ZM340 1374Q316 1397 301 1428T286 1492Q286 1512 294 1532T316 1567T350 1592T393 1602Q428 1602 461 1582T515 1527L683 1241L589 1158L340 1374Z" />
<glyph unicode="&#xed;" glyph-name="iacute" horiz-adv-x="670" d="M495 329Q495 314 495 293T493 248T491 199T487 150L620 156V0H83V133Q126 133 150 146T187 183T202 240T205 315V655Q205 692 206 740T213 834L69 828V983Q140 983 194 989T287 1004T349 1023T384
1044H495V329ZM312 1158L218 1241L386 1527Q407 1561 439 1581T507 1602Q531 1602 550 1593T584 1568T607 1532T615 1492Q615 1460 600 1429T561 1374L312 1158Z" />
<glyph unicode="&#xee;" glyph-name="icircumflex" horiz-adv-x="669" d="M338 1603H359L657 1256L569 1151L338 1365H336L104 1166L18 1264L338 1603ZM495 329Q495 314 495 293T493 248T491 199T487 150L620 156V0H83V133Q126 133 150 146T187 183T202 240T205
315V655Q205 692 206 740T213 834L69 828V983Q140 983 194 989T287 1004T349 1023T384 1044H495V329Z" />
<glyph unicode="&#xef;" glyph-name="idieresis" horiz-adv-x="670" d="M495 329Q495 314 495 293T493 248T491 199T487 150L620 156V0H83V133Q126 133 150 146T187 183T202 240T205 315V655Q205 692 206 740T213 834L69 828V983Q140 983 194 989T287 1004T349
1023T384 1044H495V329ZM301 1382Q301 1350 291 1322T264 1273T223 1240T172 1228Q144 1228 121 1240T80 1273T53 1322T43 1382Q43 1414 53 1442T80 1492T122 1525T173 1538Q202 1538 226 1526T266 1492T292 1443T301 1382ZM637 1382Q637 1350 627 1322T600 1273T559
1240T508 1228Q480 1228 457 1240T416 1273T389 1322T379 1382Q379 1414 389 1442T416 1492T458 1525T509 1538Q538 1538 562 1526T602 1492T628 1443T637 1382Z" />
<glyph unicode="&#xf0;" glyph-name="eth" horiz-adv-x="1110" d="M241 1224L341 1341Q303 1363 256 1379T153 1406L183 1556Q274 1548 342 1526T458 1481L563 1618L682 1512L595 1409Q689 1346 766 1258T898 1059T984 822T1015 553Q1015 433 986 327T897 140T748
14T537 -33Q436 -33 350 0T201 98T103 256T67 471Q67 570 95 667T182 842T328 967T535 1015Q553 1015 575 1013T621 1004T669 987T715 957H717Q706 997 681 1041T622 1127T553 1204T483 1260L365 1115L241 1224ZM751 490Q751 550 741 614T708 732T646 820T550 855Q503
855 466 826T404 749T365 637T351 505Q351 419 366 352T409 238T472 167T551 142Q592 142 628 164T692 230T735 339T751 490Z" />
<glyph unicode="&#xf1;" glyph-name="ntilde" horiz-adv-x="1303" d="M1139 329Q1139 314 1139 293T1137 248T1135 199T1131 150L1264 156V0H727V133Q770 133 794 146T831 183T846 240T849 315L848 607Q847 742 807 805T682 868Q629 868 580 846T495 793V329Q495
314 495 293T493 248T491 199T487 150L620 156V0H83V133Q126 133 150 146T187 183T202 240T205 315V660Q205 697 206 742T213 834L69 828V983Q140 983 194 989T287 1004T349 1023T384 1044H485L494 943H497Q527 966 565 987T644 1023T723 1048T793 1057Q887 1057
952 1031T1059 949T1120 808T1139 604V329ZM526 1322Q514 1322 499 1318T466 1305T432 1279T398 1239L284 1307Q300 1353 327 1392T386 1458T453 1501T523 1517Q571 1517 602 1505T659 1478T710 1451T773 1439Q809 1439 841 1466T900 1542L1016 1483Q995 1419 966
1374T904 1299T837 1257T773 1243Q732 1243 700 1255T639 1282T583 1309T526 1322Z" />
<glyph unicode="&#xf2;" glyph-name="ograve" horiz-adv-x="1159" d="M575 913Q515 911 475 879T410 794T375 677T364 544Q364 465 376 388T416 249T487 150T593 112Q654 113 692 146T753 231T784 349T793 480Q793 556 783 633T747 773T680 874T575 913ZM579 1057Q689
1057 783 1021T947 917T1055 752T1095 531Q1095 402 1058 298T953 120T791 7T585 -33Q474 -33 379 3T213 107T103 271T63 489Q63 616 104 721T215 900T380 1016T579 1057ZM340 1374Q316 1397 301 1428T286 1492Q286 1512 294 1532T316 1567T350 1592T393 1602Q428
1602 461 1582T515 1527L683 1241L589 1158L340 1374Z" />
<glyph unicode="&#xf3;" glyph-name="oacute" horiz-adv-x="1159" d="M575 913Q515 911 475 879T410 794T375 677T364 544Q364 465 376 388T416 249T487 150T593 112Q654 113 692 146T753 231T784 349T793 480Q793 556 783 633T747 773T680 874T575 913ZM579 1057Q689
1057 783 1021T947 917T1055 752T1095 531Q1095 402 1058 298T953 120T791 7T585 -33Q474 -33 379 3T213 107T103 271T63 489Q63 616 104 721T215 900T380 1016T579 1057ZM534 1158L440 1241L608 1527Q629 1561 661 1581T729 1602Q753 1602 772 1593T806 1568T829
1532T837 1492Q837 1460 822 1429T783 1374L534 1158Z" />
<glyph unicode="&#xf4;" glyph-name="ocircumflex" horiz-adv-x="1159" d="M575 913Q515 911 475 879T410 794T375 677T364 544Q364 465 376 388T416 249T487 150T593 112Q654 113 692 146T753 231T784 349T793 480Q793 556 783 633T747 773T680 874T575 913ZM579
1057Q689 1057 783 1021T947 917T1055 752T1095 531Q1095 402 1058 298T953 120T791 7T585 -33Q474 -33 379 3T213 107T103 271T63 489Q63 616 104 721T215 900T380 1016T579 1057ZM587 1603H608L936 1256L848 1151L587 1365H585L323 1166L237 1264L587 1603Z"
/>
<glyph unicode="&#xf5;" glyph-name="otilde" horiz-adv-x="1159" d="M575 913Q515 911 475 879T410 794T375 677T364 544Q364 465 376 388T416 249T487 150T593 112Q654 113 692 146T753 231T784 349T793 480Q793 556 783 633T747 773T680 874T575 913ZM579 1057Q689
1057 783 1021T947 917T1055 752T1095 531Q1095 402 1058 298T953 120T791 7T585 -33Q474 -33 379 3T213 107T103 271T63 489Q63 616 104 721T215 900T380 1016T579 1057ZM448 1322Q436 1322 421 1318T388 1305T354 1279T320 1239L206 1307Q222 1353 249 1392T308
1458T375 1501T445 1517Q493 1517 524 1505T581 1478T632 1451T695 1439Q731 1439 763 1466T822 1542L938 1483Q917 1419 888 1374T826 1299T759 1257T695 1243Q654 1243 622 1255T561 1282T505 1309T448 1322Z" />
<glyph unicode="&#xf6;" glyph-name="odieresis" horiz-adv-x="1159" d="M575 913Q515 911 475 879T410 794T375 677T364 544Q364 465 376 388T416 249T487 150T593 112Q654 113 692 146T753 231T784 349T793 480Q793 556 783 633T747 773T680 874T575 913ZM579
1057Q689 1057 783 1021T947 917T1055 752T1095 531Q1095 402 1058 298T953 120T791 7T585 -33Q474 -33 379 3T213 107T103 271T63 489Q63 616 104 721T215 900T380 1016T579 1057ZM540 1382Q540 1350 529 1322T500 1273T456 1240T404 1228Q376 1228 352 1240T309
1273T279 1322T268 1382Q268 1414 279 1442T309 1492T353 1525T405 1538Q434 1538 459 1526T502 1492T530 1443T540 1382ZM896 1382Q896 1350 885 1322T856 1273T812 1240T760 1228Q732 1228 708 1240T665 1273T635 1322T624 1382Q624 1414 635 1442T665 1492T709
1525T761 1538Q790 1538 815 1526T858 1492T886 1443T896 1382Z" />
<glyph unicode="&#xf7;" glyph-name="divide" horiz-adv-x="575" d="M436 249Q436 216 426 187T397 137T351 103T291 90Q257 90 229 102T181 136T150 187T139 249Q139 282 151 311T183 363T231 397T288 410Q320 410 347 398T394 363T425 312T436 249ZM436 951Q436
918 426 889T397 839T351 805T291 792Q257 792 229 804T181 838T150 889T139 951Q139 984 151 1013T183 1065T231 1099T288 1112Q320 1112 347 1100T394 1065T425 1014T436 951Z" />
<glyph unicode="&#xf8;" glyph-name="oslash" horiz-adv-x="1159" d="M579 1057Q704 1057 806 1011L912 1176L1049 1088L942 922Q1014 853 1054 755T1095 531Q1095 402 1058 298T953 120T791 7T585 -33Q522 -33 465 -22T356 12L238 -170L112 -74L222 98Q147 167
105 264T63 489Q63 616 104 721T215 900T380 1016T579 1057ZM575 913Q515 911 475 879T410 794T375 677T364 544Q364 495 368 447T383 350H385L703 850Q679 881 648 897T575 913ZM793 480Q793 526 790 574T778 667H776L461 175Q487 144 519 128T593 112Q654 112
692 145T753 231T784 349T793 480Z" />
<glyph unicode="&#xf9;" glyph-name="ugrave" horiz-adv-x="1266" d="M1091 329Q1090 272 1089 248T1087 199T1083 150L1216 156V0H827L816 107H814Q783 80 750 55T679 10T599 -21T507 -33Q416 -33 352 -7T246 75T186 215T167 420V655Q167 692 168 740T175 834L31
828V983Q102 983 156 989T249 1004T311 1023T346 1044H458V417Q458 282 492 219T605 156Q630 156 657 163T710 184T759 216T801 254V655Q801 692 802 740T809 834L665 828V983Q736 983 790 989T882 1004T944 1023T979 1044H1091V329ZM404 1374Q380 1397 365 1428T350
1492Q350 1512 358 1532T380 1567T414 1592T457 1602Q492 1602 525 1582T579 1527L747 1241L653 1158L404 1374Z" />
<glyph unicode="&#xfa;" glyph-name="uacute" horiz-adv-x="1266" d="M1091 329Q1090 272 1089 248T1087 199T1083 150L1216 156V0H827L816 107H814Q783 80 750 55T679 10T599 -21T507 -33Q416 -33 352 -7T246 75T186 215T167 420V655Q167 692 168 740T175 834L31
828V983Q102 983 156 989T249 1004T311 1023T346 1044H458V417Q458 282 492 219T605 156Q630 156 657 163T710 184T759 216T801 254V655Q801 692 802 740T809 834L665 828V983Q736 983 790 989T882 1004T944 1023T979 1044H1091V329ZM630 1158L536 1241L704 1527Q725
1561 757 1581T825 1602Q849 1602 868 1593T902 1568T925 1532T933 1492Q933 1460 918 1429T879 1374L630 1158Z" />
<glyph unicode="&#xfb;" glyph-name="ucircumflex" horiz-adv-x="1266" d="M1091 329Q1090 272 1089 248T1087 199T1083 150L1216 156V0H827L816 107H814Q783 80 750 55T679 10T599 -21T507 -33Q416 -33 352 -7T246 75T186 215T167 420V655Q167 692 168 740T175
834L31 828V983Q102 983 156 989T249 1004T311 1023T346 1044H458V417Q458 282 492 219T605 156Q630 156 657 163T710 184T759 216T801 254V655Q801 692 802 740T809 834L665 828V983Q736 983 790 989T882 1004T944 1023T979 1044H1091V329ZM619 1603H640L968 1256L880
1151L619 1365H617L355 1166L269 1264L619 1603Z" />
<glyph unicode="&#xfc;" glyph-name="udieresis" horiz-adv-x="1266" d="M1091 329Q1090 272 1089 248T1087 199T1083 150L1216 156V0H827L816 107H814Q783 80 750 55T679 10T599 -21T507 -33Q416 -33 352 -7T246 75T186 215T167 420V655Q167 692 168 740T175
834L31 828V983Q102 983 156 989T249 1004T311 1023T346 1044H458V417Q458 282 492 219T605 156Q630 156 657 163T710 184T759 216T801 254V655Q801 692 802 740T809 834L665 828V983Q736 983 790 989T882 1004T944 1023T979 1044H1091V329ZM586 1382Q586 1350
575 1322T546 1273T502 1240T450 1228Q422 1228 398 1240T355 1273T325 1322T314 1382Q314 1414 325 1442T355 1492T399 1525T451 1538Q480 1538 505 1526T548 1492T576 1443T586 1382ZM942 1382Q942 1350 931 1322T902 1273T858 1240T806 1228Q778 1228 754 1240T711
1273T681 1322T670 1382Q670 1414 681 1442T711 1492T755 1525T807 1538Q836 1538 861 1526T904 1492T932 1443T942 1382Z" />
<glyph unicode="&#xfd;" glyph-name="yacute" horiz-adv-x="1128" d="M657 274Q666 300 679 342T708 437T744 553T786 683Q792 702 801 727T821 780T846 832T873 874V876L756 868V1024H1120V893Q1056 877 1015 815T941 659L684 -72Q641 -197 602 -288T520 -439T425
-526T304 -555Q264 -555 230 -543T171 -509T132 -456T117 -387Q117 -359 127 -334T154 -289T196 -258T250 -246Q271 -246 290 -254T323 -278T346 -314T355 -360Q355 -373 352 -388V-390Q373 -390 396 -362T442 -287T487 -180T527 -54L202 595Q173 652 155 694T127
767T112 824T104 872L10 868V1024H520V893Q472 887 453 865T434 813Q434 794 440 774T455 733L655 274H657ZM593 1158L499 1241L667 1527Q688 1561 720 1581T788 1602Q812 1602 831 1593T865 1568T888 1532T896 1492Q896 1460 881 1429T842 1374L593 1158Z" />
<glyph unicode="&#xfe;" glyph-name="thorn" horiz-adv-x="1173" d="M583 872Q532 870 489 846T418 783V158Q428 150 444 143T480 131T522 123T566 120Q637 121 683 153T757 239T796 362T807 507Q807 577 794 644T754 762T685 843T583 872ZM128 1157Q128 1194
129 1242T136 1336L-8 1330V1485Q63 1485 117 1491T210 1506T272 1525T307 1546H418V946H421Q491 1008 560 1032T694 1057Q786 1057 862 1021T992 917T1077 753T1107 538Q1107 414 1071 310T968 129T808 10T600 -33Q544 -33 500 -22T418 4V-193Q418 -208 418 -229T416
-274T414 -323T410 -372L543 -366V-522H6V-389Q49 -389 73 -376T110 -339T125 -282T128 -207V1157Z" />
<glyph unicode="&#xff;" glyph-name="ydieresis" horiz-adv-x="1128" d="M657 274Q666 300 679 342T708 437T744 553T786 683Q792 702 801 727T821 780T846 832T873 874V876L756 868V1024H1120V893Q1056 877 1015 815T941 659L684 -72Q641 -197 602 -288T520 -439T425
-526T304 -555Q264 -555 230 -543T171 -509T132 -456T117 -387Q117 -359 127 -334T154 -289T196 -258T250 -246Q271 -246 290 -254T323 -278T346 -314T355 -360Q355 -373 352 -388V-390Q373 -390 396 -362T442 -287T487 -180T527 -54L202 595Q173 652 155 694T127
767T112 824T104 872L10 868V1024H520V893Q472 887 453 865T434 813Q434 794 440 774T455 733L655 274H657ZM570 1382Q570 1350 559 1322T530 1273T486 1240T434 1228Q406 1228 382 1240T339 1273T309 1322T298 1382Q298 1414 309 1442T339 1492T383 1525T435 1538Q464
1538 489 1526T532 1492T560 1443T570 1382ZM926 1382Q926 1350 915 1322T886 1273T842 1240T790 1228Q762 1228 738 1240T695 1273T665 1322T654 1382Q654 1414 665 1442T695 1492T739 1525T791 1538Q820 1538 845 1526T888 1492T916 1443T926 1382Z" />
<glyph unicode="&#x2013;" glyph-name="endash" horiz-adv-x="1153" d="M106 753H1047V539L106 532V753Z" />
<glyph unicode="&#x2014;" glyph-name="emdash" horiz-adv-x="1358" d="M106 753H1252V539L106 532V753Z" />
<glyph unicode="&#x2018;" glyph-name="quoteleft" horiz-adv-x="457" d="M69 1108Q69 1208 114 1322T257 1555L336 1498Q320 1477 300 1441T261 1361T231 1269T219 1175Q234 1180 243 1181T263 1182Q290 1182 315 1174T360 1150T392 1108T404 1046Q404 1015 393
987T362 938T314 905T251 892Q205 892 171 908T115 954T81 1023T69 1108Z" />
<glyph unicode="&#x2019;" glyph-name="quoteright" horiz-adv-x="431" d="M378 1341Q378 1241 333 1127T190 894L111 951Q127 972 147 1008T186 1088T216 1180T228 1274Q213 1269 204 1268T184 1267Q157 1267 132 1275T87 1299T55 1341T43 1403Q43 1434 54 1462T85
1511T133 1544T196 1557Q242 1557 276 1541T332 1495T366 1426T378 1341Z" />
<glyph unicode="&#x201a;" glyph-name="quotesinglbase" horiz-adv-x="512" d="M425 65Q425 -35 380 -149T237 -382L158 -325Q174 -304 194 -268T233 -188T263 -96T275 -2Q260 -7 251 -8T231 -9Q204 -9 179 -1T134 23T102 65T90 127Q90 158 101 186T132 235T180
268T243 281Q289 281 323 265T379 219T413 150T425 65Z" />
<glyph unicode="&#x201c;" glyph-name="quotedblleft" horiz-adv-x="867" d="M69 1108Q69 1208 114 1322T257 1555L336 1498Q320 1477 300 1441T261 1361T231 1269T219 1175Q234 1180 243 1181T263 1182Q290 1182 315 1174T360 1150T392 1108T404 1046Q404 1015
393 987T362 938T314 905T251 892Q205 892 171 908T115 954T81 1023T69 1108ZM479 1108Q479 1208 524 1322T667 1555L746 1498Q730 1477 710 1441T671 1361T641 1269T629 1175Q644 1180 653 1181T673 1182Q700 1182 725 1174T770 1150T802 1108T814 1046Q814 1015
803 987T772 938T724 905T661 892Q615 892 581 908T525 954T491 1023T479 1108Z" />
<glyph unicode="&#x201d;" glyph-name="quotedblright" horiz-adv-x="841" d="M378 1341Q378 1241 333 1127T190 894L111 951Q127 972 147 1008T186 1088T216 1180T228 1274Q213 1269 204 1268T184 1267Q157 1267 132 1275T87 1299T55 1341T43 1403Q43 1434 54
1462T85 1511T133 1544T196 1557Q242 1557 276 1541T332 1495T366 1426T378 1341ZM788 1341Q788 1241 743 1127T600 894L521 951Q537 972 557 1008T596 1088T626 1180T638 1274Q623 1269 614 1268T594 1267Q567 1267 542 1275T497 1299T465 1341T453 1403Q453 1434
464 1462T495 1511T543 1544T606 1557Q652 1557 686 1541T742 1495T776 1426T788 1341Z" />
<glyph unicode="&#x201e;" glyph-name="quotedblbase" horiz-adv-x="922" d="M425 65Q425 -35 380 -149T237 -382L158 -325Q174 -304 194 -268T233 -188T263 -96T275 -2Q260 -7 251 -8T231 -9Q204 -9 179 -1T134 23T102 65T90 127Q90 158 101 186T132 235T180
268T243 281Q289 281 323 265T379 219T413 150T425 65ZM835 65Q835 -35 790 -149T647 -382L568 -325Q584 -304 604 -268T643 -188T673 -96T685 -2Q670 -7 661 -8T641 -9Q614 -9 589 -1T544 23T512 65T500 127Q500 158 511 186T542 235T590 268T653 281Q699 281
733 265T789 219T823 150T835 65Z" />
<glyph unicode="&#x2022;" glyph-name="bullet" horiz-adv-x="782" d="M64 743Q64 810 89 869T159 971T262 1040T390 1065Q457 1065 516 1040T621 972T692 869T718 743Q718 675 692 617T621 515T517 447T390 422Q322 422 263 447T159 515T90 616T64 743Z" />
<glyph unicode="&#x2039;" glyph-name="guilsinglleft" horiz-adv-x="774" d="M38 581V537L594 -33L707 80L333 562V564L707 1020L590 1133L38 581Z" />
<glyph unicode="&#x203a;" glyph-name="guilsinglright" horiz-adv-x="774" d="M736 581V537L180 -33L67 80L441 562V564L67 1020L184 1133L736 581Z" />
</font>
</defs>
</svg>
